<svg width="35.32mm" height="141.49" viewBox="0 0 35.32 37.436" xmlns="http://www.w3.org/2000/svg">
    <g stroke-width=".5">
        <path d="M30.138.214c.33-.22.746-.135 1.124-.098.606.556.447 1.728 1.408 1.974.709.412 1.569-.286 2.212.198.293.434-.069.99.235 1.437.305.537.035 1.15-.17 1.675.546.637.152 1.365.051 2.053.487.569.151 1.257-.05 1.87.503.543.31 1.273-.008 1.852.378.601.336 1.292-.042 1.884.367.46.516 1.09.15 1.604-.51.547.257 1.304-.346 1.825-1.096 1.19-2.286 2.381-2.823 3.95-.334.717-.22 1.699-.947 2.18-1.048.77-2.207 1.371-3.326 2.027-5.641 3.188-11.292 6.355-16.925 9.56-1.934 1.047-3.8 2.248-5.818 3.13-1.088.293-.807-1.255-1.543-1.612-.717-.788-2.053-.048-2.654-.987-.36-.296-.211-.812-.46-1.156-.463-.677.45-1.431-.037-2.088-.312-.56.428-1.156.09-1.711-.341-.522-.027-1.133.122-1.66-.511-.624-.157-1.425.097-2.079-.441-.574-.312-1.307.019-1.894-.542-.662-.273-1.471.085-2.101-.506-.902.447-1.64 1.034-2.199 1.48-1.299 2.096-3.235 2.598-5.061C12.85 9.924 21.494 5.069 30.138.214m-6.604 4.471a5123.016 5123.016 0 0 1-16.232 9.186c-.892.585-2.006.953-2.664 1.82-.25 2.387-1.905 4.253-3.54 5.864.084.264.248.487.492.667-.22.494-.805.878-.778 1.452.301.069.555.217.762.442-.283.455-.59.894-.847 1.365.244.19.513.342.815.453-.156.61-.68 1.037-.937 1.603.302.032.58.13.831.296-.024.657-.746 1.056-.73 1.694l.733.209c-.008.632-.617 1.042-.826 1.608l.752.328c.121.657-.614 1.038-.736 1.643.286.172.873.143.873.609l-.135.786c.744.066 1.57-.013 2.188.5.638.304.781 1.042 1.003 1.648 1.963-.764 3.726-1.976 5.588-2.958 5.615-3.19 11.242-6.355 16.87-9.525 1.264-.762 2.614-1.405 3.773-2.328.389-.603.346-1.402.69-2.04.609-1.606 1.873-2.797 2.982-4.059-.286-.592-.159-1.172.196-1.693.376-.54-.638-.926-.196-1.487.352-.518.188-1.08-.095-1.582.325-.616.55-1.251.002-1.812.122-.442.331-.858.379-1.313l-.37-.542c.092-.453.259-.876.396-1.312-.783-.601.03-1.376-.071-2.106-.291-.453-.302-.974-.207-1.485-.889.23-1.947.225-2.659-.426-.481-.4-.61-1.042-.788-1.606-2.582 1.207-5.011 2.733-7.514 4.101z" stroke="#000" stroke-width=".13229"/>
        <path d="M23.523 4.685c2.503-1.368 4.932-2.894 7.514-4.1.178.563.307 1.206.789 1.605.712.651 1.77.656 2.659.426-.095.51-.085 1.032.206 1.485.1.73-.711 1.505.072 2.106-.138.436-.305.86-.397 1.312.092.135.278.405.37.542-.047.455-.256.87-.378 1.313.548.56.323 1.196-.003 1.812.283.503.447 1.064.095 1.582-.441.561.572.947.196 1.487-.354.521-.481 1.1-.196 1.693-1.108 1.262-2.373 2.453-2.981 4.06-.344.637-.302 1.436-.69 2.039-1.16.923-2.51 1.566-3.774 2.328-5.627 3.17-11.255 6.334-16.87 9.525-1.862.982-3.624 2.194-5.587 2.958-.223-.606-.365-1.344-1.003-1.648-.62-.513-1.445-.434-2.188-.5.034-.199.1-.59.135-.786 0-.466-.588-.437-.873-.609.121-.605.857-.986.735-1.643l-.751-.328c.209-.566.817-.976.825-1.608l-.733-.21c-.015-.637.707-1.036.73-1.693a1.828 1.828 0 0 0-.83-.296c.256-.566.78-.992.936-1.603a2.984 2.984 0 0 1-.814-.453c.256-.47.563-.91.846-1.365a1.449 1.449 0 0 0-.762-.442c-.026-.574.558-.958.778-1.452a1.319 1.319 0 0 1-.492-.667c1.635-1.611 3.291-3.477 3.54-5.863.659-.868 1.773-1.236 2.664-1.82 5.416-3.054 10.83-6.115 16.232-9.187m4.128-.082C20.872 8.4 14.062 12.136 7.313 15.978c-.649.412-.744 1.24-1.056 1.883a12.489 12.489 0 0 1-1.934 2.956l.05.095c-.05.082-.15.249-.198.333a663.02 663.02 0 0 0-.122 10.515c.198-.291.458-.604.37-.985.048-1.43-.071-2.88.07-4.299-.218 1.767.37 3.662-.34 5.337.175-.011.524-.03.696-.037l-.804.074c.27.553.94.41 1.384.709.476.198.815.595 1.063 1.04.839.301 1.593-.336 2.326-.66 6.17-3.434 12.343-6.865 18.513-10.302.807-.53 1.775-.894 2.37-1.688.344-.92.757-1.818 1.302-2.64.46-.805 1.267-1.503 1.27-2.49.005-.146.01-.44.016-.588.167-2.78.037-5.574.08-8.358.039-.52-.017-1.04-.302-1.481-.416-.14-.82-.305-1.22-.466-.426-.357-.802-.765-1.201-1.14-.775-.17-1.342.531-1.995.817z" fill="#f5d85e" stroke="#f5d85e" stroke-width=".13229"/>
        <path d="M27.65 4.603c.654-.286 1.22-.987 1.996-.817.4.375.775.783 1.2 1.14l-.444.278c-.002.14-.002.42-.005.56-.508-.298-.92-.719-1.392-1.058C21.96 8.564 14.983 12.543 7.942 16.41c-.571.222-.688.891-.973 1.368-.567 1.23-1.35 2.336-2.104 3.452-.034 2.734-.002 5.47-.013 8.205.003.677-.066 1.416.32 2.021.89.138 1.45.892 2.164 1.36 2.12-.93 4.075-2.196 6.117-3.28 4.797-2.712 9.62-5.369 14.42-8.073 1.614-.754 1.77-2.738 2.839-3.995.455-.487.71-1.1.683-1.773.174-2.746.18-5.498.182-8.25l.058.083c.096.116.289.352.384.47.058 2.509.087 5.025-.024 7.533l.278.289c-.003.987-.81 1.685-1.27 2.49-.545.822-.958 1.72-1.302 2.64-.595.794-1.563 1.159-2.37 1.688-6.17 3.437-12.343 6.868-18.513 10.303-.733.323-1.487.96-2.326.659-.248-.445-.587-.842-1.063-1.04-.445-.3-1.114-.156-1.384-.71l.804-.073c-.172.008-.52.026-.696.037.71-1.675.122-3.57.34-5.337.43-.897.23-1.897.277-2.852-.021-.92.188-1.918-.397-2.712l-.05-.095a12.489 12.489 0 0 0 1.934-2.956c.312-.643.407-1.47 1.056-1.883C14.062 12.136 20.873 8.4 27.65 4.603m1.664.12c.317.235.86-.14.474-.48-.363-.407-.715.135-.474.48z" fill="#624813" stroke="#624813" stroke-width=".13229"/>
        <path d="M29.318 4.722c-.241-.344.11-.886.473-.479.387.34-.156.715-.473.48z" stroke="#000" stroke-width=".13229"/>
        <path d="M7.94 16.409c7.04-3.866 14.017-7.845 21.063-11.703.47.34.883.76 1.391 1.059.363.209.755.352 1.157.487.008.394.013.79.024 1.193-.003 2.751-.008 5.503-.183 8.25.026.671-.228 1.285-.683 1.772-1.069 1.257-1.225 3.241-2.839 3.995-4.8 2.704-9.622 5.36-14.42 8.073-2.042 1.084-3.997 2.35-6.116 3.28-.715-.468-1.276-1.222-2.165-1.36-.386-.605-.317-1.344-.32-2.02.01-2.737-.02-5.472.014-8.206.754-1.116 1.537-2.222 2.103-3.452.286-.477.402-1.146.974-1.368m16.062-3.673c-.643-.248-.99.5-1.58.582.52.593.16 1.421.279 2.133-.083.122-.25.368-.331.49.5-.151 1.106-.379 1.402-.805-.521-.563-.172-1.542-.185-2.26l.484-.14.048.45c.563-.14.354-1.021 1.047-.944-.05.613-.04 1.233-.026 1.852-.093.127-.283.38-.378.508.52-.162 1.029-.463 1.457-.78l-.283-.472c.019-.569.01-1.137.03-1.701a1.48 1.48 0 0 1 .997-.019c.077-.301.087-.603.034-.904-.952.735-2.286 1.016-2.995 2.01M20.88 14.26c-.267.543-.463 1.117-.653 1.691-.506.03-.35-.786-.818-.783-.418.066-.725.413-1.127.53.32.809.325 1.83-.026 2.634.285-.098.566-.217.836-.36a7.668 7.668 0 0 1-.162-1.508c.67-.203.37.905.955.744.69-.339.45-1.416 1.053-1.802.053.545.022 1.087-.164 1.614.387-.275.807-.516 1.228-.744-.32-.86-.204-1.836-.016-2.714-.368.243-.722.487-1.106.698m-6.056 3.527c.209.813.545 2.241-.445 2.665-.388-.561-.648-1.191-.923-1.805-.614-.095-.95.553-1.124 1.024.695-.15.981.476.404.908-.148-.305-.288-.604-.465-.884-.204.913-.487 1.857-1.059 2.614.434-.066.797-.33 1.194-.516a11.696 11.696 0 0 1-.326-.516c.397-.26.805-.862 1.347-.65-.082.153-.249.462-.33.616.737-.12 1.245-.736 1.93-.987 1.234-.643 2.702-1.463 2.863-3.006a44.16 44.16 0 0 0-.248-.627c-1.07-.204-1.982.627-2.818 1.164m8.961-.704c-.801.524-1.656.96-2.47 1.458.568.704.351 1.847.023 2.636.823-.463 1.65-.924 2.46-1.419.016-.193.053-.58.072-.772-.609.222-.69 1.156-1.45 1.153.066-.301-.108-.746.201-.934.199-.013.598-.037.797-.047v-.847c-.495-.026-.493.587-.908.683-.444-.754.521-1.373 1.164-1.032.225-.249.156-.59.111-.879M20 19.31c.37.396.286.934.251 1.428-.428-.222-.783-.545-1.15-.841-.37.111-.768.24-1.024.542.293.67.1 1.413.156 2.122l-.339.519c.389-.111.733-.336 1.088-.535-.432-.415-.207-1.037-.278-1.555.569.13.907.709 1.455.928 1.28-.595.177-2.233.807-3.24-.323.214-.648.42-.966.632m-5.162 3.384c-.323.566-.487 1.386.043 1.886 1.013.003 1.87-.728 2.42-1.524.297-.62.559-1.614-.243-1.955-.913.225-1.733.786-2.22 1.593z" fill="#f5d85e" stroke="#f5d85e" stroke-width=".13229"/>
        <path d="M30.852 4.926c.4.161.805.325 1.22.466.286.442.341.96.302 1.481l-.286-.013c-.05-.103-.148-.315-.199-.418a6.518 6.518 0 0 0-.248 1.085l-.059-.082c-.01-.402-.015-.8-.023-1.193-.403-.135-.794-.278-1.157-.487.003-.14.003-.421.006-.561.11-.069.333-.21.444-.278z" fill="#654a14" stroke="#654a14" stroke-width=".13229"/>
        <path d="M31.884 6.442c.05.103.148.315.199.418.322 2.778-.08 5.593.206 8.371-.005.149-.01.442-.016.588l-.278-.289c.111-2.508.082-5.024.024-7.532-.095-.12-.288-.355-.384-.471.053-.37.135-.733.25-1.085z" stroke="#000" stroke-width=".13229"/>
        <path d="M32.096 6.86l.285.013c-.042 2.784.088 5.578-.079 8.358-.286-2.778.117-5.593-.206-8.37z" fill="#070602" stroke="#070602" stroke-width=".13229"/>
        <g stroke="#000">
            <path d="M24 12.736c.709-.994 2.042-1.275 2.995-2.01.053.301.042.603-.035.904a1.48 1.48 0 0 0-.997.019c-.019.564-.01 1.132-.03 1.701l.284.471c-.429.318-.937.62-1.458.78.095-.126.286-.38.378-.507-.013-.62-.024-1.239.027-1.852-.693-.077-.484.804-1.048.944l-.048-.45-.484.14c.013.718-.336 1.697.185 2.26-.296.426-.902.654-1.402.804.082-.121.249-.367.33-.489-.118-.712.242-1.54-.277-2.133.59-.082.937-.83 1.58-.582zM20.878 14.26c.383-.211.738-.455 1.105-.698-.187.878-.304 1.855.016 2.714-.42.228-.841.469-1.227.744.185-.527.217-1.069.164-1.614-.603.386-.363 1.463-1.053 1.802-.585.161-.286-.947-.955-.744.002.5.058 1.011.161 1.508-.27.143-.55.262-.836.36.352-.804.347-1.825.026-2.635.403-.116.71-.463 1.127-.53.469-.002.313.813.818.784.19-.574.386-1.148.654-1.69zM14.819 17.787c.836-.537 1.749-1.368 2.817-1.164.064.156.188.468.25.627-.162 1.543-1.63 2.363-2.864 3.006-.685.251-1.193.868-1.931.987.082-.154.249-.463.33-.617-.542-.211-.95.392-1.346.651.1.17.209.341.325.516-.396.185-.759.45-1.193.516.572-.757.855-1.701 1.058-2.614.178.28.318.58.466.884.577-.432.291-1.059-.405-.908.175-.47.511-1.12 1.125-1.024.275.614.534 1.244.923 1.805.99-.424.654-1.852.445-2.665m1.002-.32c-.008.625.014 1.252-.034 1.881.95-.08 1.402-1.31 1.053-2.127a1.198 1.198 0 0 0-1.019.246zM23.788 17.083c.045.289.114.63-.111.879-.643-.341-1.609.278-1.164 1.032.415-.096.412-.71.907-.683v.847c-.198.01-.598.034-.796.047-.31.188-.135.633-.201.934.759.003.841-.931 1.45-1.153-.019.193-.056.58-.072.772-.81.495-1.638.956-2.46 1.419.328-.789.545-1.932-.024-2.636.815-.497 1.67-.934 2.47-1.458z" stroke-width=".13229"/>
        </g>
        <path d="M15.824 17.467c.312-.24.65-.323 1.019-.246.349.818-.103 2.048-1.053 2.127.047-.63.026-1.256.034-1.88z" fill="#f5d85e" stroke="#f5d85e" stroke-width=".13229"/>
        <path d="M20.004 19.309c.318-.212.643-.418.966-.633-.63 1.008.474 2.646-.807 3.241-.548-.22-.886-.799-1.455-.928.071.518-.153 1.14.278 1.555-.355.199-.699.424-1.088.535l.339-.519c-.056-.709.138-1.452-.156-2.122.257-.301.653-.43 1.024-.542.368.296.722.62 1.15.841.035-.494.12-1.032-.25-1.428z" fill="#050402" stroke="#050402" stroke-width=".13229"/>
        <path d="M4.183 21.245c.047-.084.148-.251.198-.333.585.794.376 1.791.397 2.712-.048.955.153 1.955-.278 2.852-.14 1.418-.021 2.868-.069 4.3.088.38-.172.693-.37.984.013-3.506.053-7.012.122-10.515zM14.845 22.693c.487-.807 1.307-1.368 2.22-1.593.802.341.54 1.336.243 1.955-.55.796-1.407 1.527-2.42 1.524-.53-.5-.366-1.32-.043-1.886m.804 1.328c1.088-.093 1.289-1.514.89-2.326-1.056.109-1.458 1.532-.89 2.326z" stroke="#000" stroke-width=".13229"/>
        <path d="M15.639 24.02c-.569-.793-.167-2.216.889-2.325.4.812.198 2.233-.89 2.326z" fill="#f1d45c" stroke="#f1d45c" stroke-width=".13229"/>
    </g>
</svg>
