<svg width="362.404" height="843.326" viewBox="0 0 95.886 223.127" xmlns="http://www.w3.org/2000/svg">
    <g stroke-width=".5">
        <path d="M35.508 1.84C38.702.583 42.226-.541 45.655.435c.262.161.889.024.9.42-.715-.034-1.387-.296-2.088-.38-2.926-.434-5.908.368-8.551 1.574 3.614.005 7.215 1.31 9.919 3.725a42.14 42.14 0 0 1 6.62 7.694c.526.754.796 1.707 1.542 2.289 1.58-.92 3.183-1.974 5.067-2.098 3.201-.416 6.32.973 8.837 2.85 3.124 2.36 5.609 5.47 7.638 8.797 3.262 5.413 5.416 11.527 6.011 17.832.395 4.705-.148 9.676-2.637 13.785-.522 1.016-1.464 1.704-2.12 2.617 1.733-.593 3.075-1.948 4.731-2.667-.992 1.121-2.524 1.709-3.746 2.582 1.047.585 2.33.886 3.227 1.664l-.288.508c.516 2.95.323 5.974.505 8.946 2.868.6 5.718 1.307 8.512 2.185.545.13.96.643 1.564.534 1.426-.092 2.92.598 3.659 1.847.944 1.57.976 3.506.709 5.268-.35 2.376-1.286 4.617-2.432 6.712-1.204 2.136-2.87 4.11-5.066 5.258-2.16 1.045-5.17 1.211-6.898-.71-.116 4.17.098 8.361-.082 12.523a2446.65 2446.65 0 0 0-11.406 5.067c.315 3.294.738 6.588 1.294 9.853-.088.037-.265.11-.352.148-.23-.648.013-1.397-.44-1.971.059-.394.085-.797-.028-1.175-.434-2.17-.71-4.368-1.011-6.559-.775-.084-1.302.741-2.059.791l.064-.545c4.44-2.013 8.924-3.934 13.364-5.955.262-1.421.034-2.921.106-4.371-.021-2.715.008-5.432-.03-8.147-4.045-2.614-7.839-5.741-10.755-9.601-1.233-1.545-.992-3.75-.174-5.424 1.442-2.87 4.066-5.215 7.21-6.017 1.169-.315 2.378-.082 3.553.085.122-2.905.103-5.85-.341-8.731-1.598 1.212-3.472 1.96-5.202 2.95-2.55 1.307-5.125 2.569-7.686 3.852-.251-.209-.466-.182-.648.077-10.295-5.122-20.542-10.345-30.911-15.322-3.18-1.394-6.252-3.061-9.504-4.273-.206.966-.161 1.955-.201 2.937-.267 4.5-.564 8.996-.736 13.501-.571 7.398-.804 14.814-1.272 22.22.024.368-.151.886.238 1.13 10.737 5.595 21.545 11.064 32.242 16.74 3.35 1.645 6.815 3.05 10.202 4.616l.047.334c.024.114.067.338.09.45-2.103-.966-4.143-2.061-6.244-3.032-.243.16-.79.22-.677.632.479 3.175.974 6.35 1.46 9.527.106.598.09 1.257.466 1.776l-.156.098-.177.076c.365.622.333 1.366.468 2.056 3.85 25.392 7.707 50.781 11.562 76.17 1.257 8.11 2.419 16.232 3.736 24.33 1.823-.629 3.493-1.618 5.22-2.457-.595-6.075-1.444-12.126-2.138-18.193-3.106-25.82-6.23-51.64-9.337-77.46-.214-1.511-.306-3.038-.6-4.533.214-.167.442-.317.682-.45-.124.768.05 1.537.133 2.3 3.796 31.487 7.593 62.975 11.393 94.462.1 1.392.463 2.797.402 4.183-1.895.945-3.739 2.02-5.742 2.72L76.81 223c-5.868-38.195-11.62-76.41-17.43-114.616-.945.161-1.863.442-2.802.61-.156 23.117-.4 46.234-.865 69.347-.043.686.018 1.39-.16 2.064-1.764-.183-3.508-.54-5.254-.839-.487-.031-.349-.645-.389-.96-.566-20.907-.915-41.82-1.344-62.73-.071-2-.01-4.008-.17-6-3.211-.087-6.42-.566-9.505-1.476-.55-.151-1.101-.328-1.665-.384-2.981 10.673-6.13 21.296-9.16 31.959-6.482 22.555-12.959 45.11-19.433 67.669-2.87-.342-5.715-1.064-8.567-1.59.148-1.342.712-2.617 1.032-3.93 9.586-33.154 19.227-66.293 28.781-99.455-.884-1.99-.812-4.226-.926-6.358-.14-1.556.026-3.125-.146-4.675a202.802 202.802 0 0 1-5.341-2.73c.362-8.893.907-17.78 1.426-26.665-1.392-.992-2.52-2.307-3.9-3.318-.884-.733-2.202-1.262-2.376-2.537-.304-2.429 1.156-4.72 2.987-6.186 1.127-.929 2.595-1.4 4.056-1.228.013-.193.045-.582.06-.778 1.014-.365 2.001-.807 3.03-1.137-.034-.413-.606-.323-.796-.638-1.127-.884-2.27-1.788-3.072-2.995-.251-.407-.78-.725-.643-1.273l.492-.01c-.362.495.474.902.527.251l-.408-.323-.098-.243c1.257-1.021 2.588-1.942 3.85-2.955.238-.156.442-.498.778-.403 1.648 1.794 3.283 3.927 5.688 4.707-.098-.52-.531-.82-.815-1.22-3.148-4.087-5.447-8.81-6.831-13.773-1.413-5.184-1.945-10.732-.696-16.002.855-3.601 2.805-7.152 6.086-9.054.838-.564 1.854-.736 2.698-1.286m-5.791 4.847c-2.718 3.86-3.34 8.782-3.117 13.388.553 8.866 4.172 17.568 10.231 24.087 1.148 1.22 2.432 2.31 3.535 3.575.278.965.41 2.026.188 3.016l.444-.201a232.819 232.819 0 0 0 7.813 4.082c4.615 2.289 9.208 4.63 13.899 6.763.833.304 1.661.841 2.577.767.084-.545.243-1.23.873-1.376.9-.166 1.775.23 2.662.342 2.145.46 4.479.082 6.323-1.125 2.106-1.341 3.548-3.508 4.477-5.789 1.005-2.51 1.434-5.217 1.508-7.91.066-6.433-1.76-12.785-4.604-18.513-2.58-4.9-6.083-9.634-11.1-12.23-2.6-1.32-5.767-1.835-8.53-.719-.997.333-1.91.863-2.896 1.217-1.003-.288-1.207-1.423-1.776-2.156-1.796-2.627-3.868-5.062-6.08-7.348-2.23-2.468-5.585-3.595-8.81-3.96-3.104-.363-5.884 1.701-7.617 4.09m-.778 32.33c-.172.42-.016.544.465.37.13-.405-.026-.53-.465-.37m-3.318 2.497c-.41.394.132.762.27 1.124a25.693 25.693 0 0 0 3.214 2.969c-.15.299-.516.54-.463.913.429.084.485-.696.956-.453-.125.355-.379 1.045.264 1.008a8.53 8.53 0 0 0 0-1.22l.257.509c.67-.03.965.785 1.598.579-.23.235-.476.463-.712.69.161.043.482.122.64.162-.016-.159-.05-.474-.068-.63l.584.043c.8-.86 1.559-1.757 2.387-2.59-.103-.625.513-.522.923-.559.048.238.14.714.185.953l-.5-.244c-.772.696-1.436 1.51-2.159 2.262l-.119.432c.5.055.892.46 1.426.37-.357.249-.661 1.164.019 1.077-.066-.39.063-.725.38-1.016.157.243.443.886.033 1.013l.029.228c.65.15.41-.596.315-.955 1.606.706 3.376 1.002 5.058 1.508-.087-.559-.113-1.133-.33-1.654-.908-1.389-2.427-2.241-3.358-3.596l.013.48c-.177.013-.537.044-.714.057.045-.33.056-.672.183-.984-.471.201-.794-.299-1.157-.495a1.228 1.228 0 0 0-.232.86c-.99-.227-1.755-.928-2.62-1.407l-.632-.484c.132-.328.357-.54.675-.638-.342-.685-.757.138-.96.45-.72-.707-1.517-1.363-2.038-2.241-.148-.339-.574-.434-.87-.228-.858.514-1.564 1.291-2.477 1.707m3.857-1.805c-.11.424.03.553.421.392.167-.471.027-.6-.42-.392m.822.593c-.394.156-.42.328-.076.516.389-.217.415-.389.076-.516m.278.746c-.198.315.294.543.508.318.36-.363-.288-.704-.508-.318m1.558 1.138c-.002.116-.01.35-.015.463.59.473.709-.9.015-.463m.807.545c-.193.41-.058.54.408.389.148-.466.013-.593-.408-.39m-7.701.149c-.125.42.023.574.45.46.147-.426-.003-.579-.45-.46m8.635.344c-.378.894.866.021 0 0m-8.072.423c.003.106.01.318.016.426.677.37.6-1.055-.016-.426m.736.55c-.064.077-.196.23-.262.308.238.801 1.143-.561.262-.307m.534.624c-.413.23.032.804.389.569.558-.222.037-.95-.389-.569m.77.675c-.124.434.019.576.426.428.161-.45.019-.592-.426-.428m2.73 1.41l-.272.299c-.048.733 1.016-.373.272-.3m-1.587.596c-.736.318-1.521.521-2.217.908.648.428 1.402.666 2.098 1.021 11.673 5.265 23.034 11.179 34.506 16.864 1.199.55 2.331 1.273 3.575 1.715 3.175-1.625 6.395-3.165 9.551-4.831 1.14-.678 2.456-1.13 3.376-2.12-.83-.497-1.764-.815-2.619-1.275-.566.238-1.222.214-1.722.593-1.94 1.323-4.424 1.76-6.713 1.293-.804-.113-1.585-.399-2.4-.399-.83.111-.31 1.521-1.283 1.468-1.595-.211-3.008-1.066-4.466-1.688-6.395-3.071-12.763-6.207-19.034-9.525-.571-.259-1.103-.634-1.749-.605-1.28-.376-2.563-.728-3.844-1.083-2.053-.682-4.217-1.119-6.112-2.22-.275-.2-.64-.277-.947-.116m3.106.217c-.167.463-.024.614.426.453.1-.432-.042-.582-.426-.453m1.082.19c-.33.027-.423.678-.074.723.431.037.625-.818.074-.722m2.556 1.116c-.346.805.955-.029 0 0m.934.236c-.172.46-.048.61.373.447.159-.463.032-.614-.373-.447M21.83 50.684c-1.58 1.334-2.86 3.294-2.714 5.435.003.825.735 1.338 1.344 1.767 1.59 1.064 2.937 2.44 4.368 3.701.106-.246.17-.497.19-.759.16-3.762.448-7.517.612-11.279-1.357-.222-2.762.251-3.8 1.135M37.606 49.5c-.164.479-.034.627.395.439.135-.44.002-.587-.395-.44m1.064.337l-.124.18c.185.653.828-.384.124-.18m.892.233c-.16.415-.024.56.41.436.145-.468.008-.614-.41-.436m33.191 23.156c-1.704 1.585-3.204 3.736-3.135 6.156-.008 1.257.876 2.22 1.622 3.138 2.124 2.554 4.648 4.75 7.318 6.718.73.463 1.394 1.111 2.22 1.379-.722-2.204-.31-4.578.272-6.763.855-3.183 2.517-6.2 5.004-8.395 1.119-.876 2.328-1.887 3.812-1.955-.251-.28-.63-.337-.96-.453-3.043-.892-6.123-1.661-9.237-2.252-2.55-.584-5.072.762-6.916 2.427m16.476.648c-2.98.923-5.054 3.527-6.493 6.165-1.212 2.505-2.037 5.262-2.022 8.061.011 1.612.585 3.474 2.178 4.175 1.833.739 3.99.445 5.678-.542 2.206-1.32 3.728-3.51 4.847-5.776 1.18-2.362 2.03-4.969 1.945-7.635-.056-1.445-.495-3.017-1.694-3.927-1.254-.96-2.987-.936-4.44-.521m-59.294 18.42a4.556 4.556 0 0 0-.284 1.651c.276 1.699 1.04 3.36 2.347 4.514 2.81 2.64 6.654 3.722 10.33 4.532 3.137.743 6.378.69 9.583.648-7.31-3.81-14.621-7.628-21.976-11.345m.703 10.689c1.66 1.585 3.633 2.818 5.625 3.945 1.032.632 2.244.794 3.384 1.138 2.868.801 5.845 1.164 8.813 1.307 2.443-.125 4.911-.186 7.305-.752 1.323-.402 2.816-.378 4.025-1.082-1.924-.76-3.752-1.73-5.58-2.69-.4-.183-.78-.525-1.244-.458-3.09.349-6.21-.027-9.252-.59-3.583-.654-7.189-1.593-10.337-3.482-1.805-1.075-3.212-2.776-3.86-4.779-.008 2.495-.093 5.183 1.121 7.443m-.365.49c-.894 2.902-1.754 5.818-2.648 8.723-.627 2.206-1.432 4.373-1.916 6.612 2.609.304 5.239.574 7.869.703 1.029-3.91 2.175-7.794 3.156-11.718-1.492-.897-3.072-1.656-4.466-2.704-.709-.487-1.291-1.13-1.995-1.617m22.392 6.096c-1.125.106-2.265.022-3.363.331l-.151.423c.069 1.68-.225 3.416.204 5.057.069 3.339-.045 6.688.121 10.02 2.114.19 4.25.18 6.372.272.09-3.617.04-7.237.074-10.853-.07-1.905.15-3.834-.101-5.718-1.048.199-2.106.3-3.156.468m-26.93 9.539c-2.116 7.016-4.098 14.078-6.148 21.118C13.252 161.983 7 183.768.645 205.522c.799.386 1.72.4 2.577.616 1.677.275 3.352.77 5.035.881 8.037-28.008 16.091-56.014 24.13-84.025.24-1.082.772-2.146.798-3.241-2.484-.212-4.96-.498-7.45-.648m23.558 6.569c.182 11.546.481 23.09.698 34.634.167 6.254.204 12.52.514 18.766 1.542.217 3.077.611 4.63.693.143-3.743.161-7.492.246-11.239.188-14.205.428-28.41.521-42.618-2.199-.09-4.413-.265-6.61-.236z" stroke="#000" stroke-width=".13229"/>
        <path d="M35.916 2.049C38.559.843 41.54.041 44.466.475c.702.084 1.374.346 2.088.38.104.003.313.009.416.009l.127.13c.582.568 1.368.896 2.14 1.132.061.024.18.076.241.103.148.233.333.434.556.606 3.312 2.36 5.775 5.688 7.958 9.07.408.553.683 1.603 1.57 1.42 2.105-.595 4.092-1.754 6.344-1.756 1.278-.104 2.468.41 3.699.637.095.006.283.013.375.019l.109.132c.603.717 1.545 1.109 2.415 1.42.07.025.21.078.278.104.357.733 1.125 1.199 1.868 1.476l.302.18c.04.503.503.744.828 1.061.537.458.92 1.104 1.58 1.413l.153.087.034.223c.006.468.347.897.82.976l.186.069.063.198c.13.582.559 1.019.876 1.506 4 5.794 6.226 12.686 6.95 19.66-.182.972-.005 1.943-.103 2.922.167.703.3 1.439.106 2.159-.46 2.92-1.032 5.937-2.74 8.421-.482.794-1.202 1.408-1.689 2.19-.042.083-.124.252-.167.334l-.325.117c-1.656.72-2.998 2.074-4.73 2.667.655-.913 1.597-1.601 2.119-2.617 2.49-4.109 3.032-9.08 2.637-13.785-.595-6.305-2.749-12.42-6.01-17.832-2.03-3.326-4.515-6.438-7.64-8.798-2.515-1.876-5.635-3.265-8.836-2.85-1.884.125-3.487 1.178-5.067 2.099-.746-.582-1.016-1.535-1.542-2.289a42.14 42.14 0 0 0-6.62-7.694c-2.704-2.415-6.305-3.72-9.92-3.725z" fill="#424242" stroke="#424242" stroke-width=".13229"/>
        <path d="M47.097.993c.526-.045.955.339 1.415.537.223.199.752.207.725.596-.772-.236-1.558-.564-2.14-1.133z" fill="#090909" opacity=".83" stroke="#090909" stroke-width=".13229"/>
        <path d="M49.478 2.229c1.246.54 2.212 1.609 3.246 2.482 2.41 2.423 4.4 5.22 6.181 8.125.328.553 1.032.071 1.492-.04 2.471-1.045 5.231-2.005 7.92-1.188.399.21 1.092.138 1.288.598-1.23-.227-2.421-.74-3.7-.637-2.25.002-4.238 1.161-6.344 1.756-.886.183-1.161-.867-1.569-1.42-2.183-3.382-4.646-6.71-7.958-9.07a2.371 2.371 0 0 1-.556-.606z" stroke="#000" stroke-width=".13229"/>
        <path d="M29.717 6.687c1.733-2.389 4.513-4.453 7.617-4.09 3.225.365 6.58 1.492 8.81 3.96 2.212 2.286 4.284 4.72 6.08 7.348.57.733.773 1.868 1.776 2.156.987-.354 1.9-.884 2.897-1.217 2.762-1.116 5.93-.6 8.53.72 5.016 2.595 8.52 7.329 11.1 12.229 2.843 5.728 4.669 12.08 4.603 18.512-.074 2.694-.503 5.4-1.508 7.911-.929 2.281-2.371 4.448-4.477 5.79-1.844 1.206-4.178 1.584-6.323 1.124-.887-.111-1.763-.508-2.662-.342-.63.146-.789.831-.873 1.376-.916.074-1.744-.463-2.577-.767-4.691-2.133-9.284-4.474-13.899-6.763a232.819 232.819 0 0 1-7.813-4.082l-.444.2c.222-.989.09-2.05-.188-3.015-1.103-1.265-2.387-2.355-3.535-3.575-6.059-6.519-9.678-15.221-10.231-24.087-.222-4.606.4-9.528 3.117-13.388m7.44 10.821c-1.297.469-2.194 1.66-2.622 2.927l-.048.031c-.664 1.982-.569 4.096-.28 6.139.206.979.404 1.973.806 2.894.236.643.54 1.254.8 1.89l.037.007c1.185 2.37 3.085 4.617 5.744 5.313l.457.032.863-.013.264.087.127-.138c1.498-.349 2.517-1.696 2.99-3.09.728-2.003.564-4.167.273-6.236-.252-.887-.44-1.789-.82-2.633-.871-2.063-2.022-4.08-3.747-5.548l.021-.069c-1.336-1.122-3.077-2.03-4.865-1.593m21.87 11.933c-1.728 1.728-1.969 4.363-1.826 6.68.138 1.514.484 3.078 1.109 4.483 1.098 2.844 2.982 5.67 5.836 6.96.268.104.532.239.823.3.812.076 1.699.074 2.426-.355 1.133-.582 1.744-1.775 2.189-2.913.103-.341.193-.685.277-1.03.39-2.325.114-4.706-.537-6.96-.09-.265-.188-.524-.278-.78-.767-1.85-1.799-3.612-3.214-5.036l.005-.053c-.302-.288-.587-.595-.931-.825-.704-.503-1.429-.982-2.252-1.262l-.024-.04c-1.251-.315-2.667-.116-3.603.831z" fill="#efefef" stroke="#efefef" stroke-width=".13229"/>
        <path d="M70.084 12.357c.635.069 1.143.519 1.698.804.214.212.73.241.717.617-.87-.312-1.812-.704-2.415-1.42z" fill="#0c0c0c" opacity=".86" stroke="#0c0c0c" stroke-width=".13229"/>
        <path d="M72.782 13.881c.688.36 1.445.823 1.868 1.476-.743-.277-1.51-.743-1.868-1.476z" fill="#0d0d0d" opacity=".88" stroke="#0d0d0d" stroke-width=".13229"/>
        <path d="M74.952 15.537c.9.69 1.85 1.5 2.408 2.474-.66-.31-1.043-.955-1.58-1.413-.325-.317-.788-.558-.828-1.06z" fill="#060606" opacity=".75" stroke="#060606" stroke-width=".13229"/>
        <path d="M37.157 17.508c1.788-.436 3.53.471 4.865 1.593l-.021.069-.058.225c1.159 1.198 2.214 2.521 2.915 4.048.25.452.358 1.058.89 1.275.38.844.568 1.746.82 2.633-.357.627-.085 1.357-.074 2.032.156 2.143-.14 4.516-1.673 6.143-.42.498-1.153.598-1.516 1.151l-.127.138-.264-.087c-.193-.331-.717-.384-.863.013l-.457-.032.156-.32c-2.363-.408-4.093-2.368-5.247-4.342-.198-.23-.275-.693-.653-.65l-.037-.009c.27-.627-.252-1.529-.8-1.889-.402-.92-.6-1.915-.806-2.894.357-.892.005-1.852.066-2.776-.064-1.058.193-2.085.362-3.116l-.148-.247.048-.031c.605-.368.756-1.151 1.243-1.646.368-.527 1.088-.688 1.379-1.28z" fill="#424242" stroke="#424242" stroke-width=".13229"/>
        <path d="M34.535 20.435c.428-1.268 1.325-2.458 2.622-2.927-.291.593-1.011.754-1.379 1.281-.487.495-.638 1.278-1.243 1.646z" stroke="#000" stroke-width=".13229"/>
        <path d="M77.545 18.32c.373-.06.913.62.82.977a1.004 1.004 0 0 1-.82-.976z" fill="#0a0a0a" opacity=".87" stroke="#0a0a0a" stroke-width=".13229"/>
        <g stroke="#000">
            <path d="M41.943 19.395L42 19.17c1.725 1.468 2.876 3.485 3.746 5.548-.531-.217-.64-.823-.889-1.275-.7-1.527-1.756-2.85-2.915-4.048zM78.63 19.564c.312.093.43.44.634.672 4.604 6.472 7.24 14.375 7.483 22.288-.495-.325-.09-1.246-.291-1.793-.725-6.975-2.95-13.867-6.95-19.661-.318-.487-.747-.924-.877-1.506zM34.487 20.466l.148.247c-.17 1.031-.426 2.058-.362 3.116-.061.924.29 1.884-.066 2.776-.289-2.043-.384-4.157.28-6.139zM46.494 29.383c-.011-.675-.283-1.405.074-2.032.29 2.069.455 4.233-.273 6.236-.473 1.394-1.492 2.741-2.99 3.09.363-.553 1.096-.653 1.516-1.15 1.532-1.628 1.829-4.001 1.673-6.144zM59.024 29.441c.937-.947 2.352-1.146 3.604-.83-.567.425-1.37-.048-2.014.221-1.918.572-2.807 2.652-3.069 4.477-.24.926.064 1.926-.346 2.813-.143-2.318.097-4.953 1.825-6.681z" stroke-width=".13229"/>
        </g>
        <path d="M62.622 28.61l.024.04c.516.73 1.492.966 2.194 1.51l.058-.248c.344.23.63.537.931.825l-.005.053-.032.32c.913 1.056 1.773 2.178 2.363 3.45.238.456.365 1.038.883 1.265.09.257.188.516.278.78-.367.34-.024.834.019 1.236.547 1.773.386 3.646.349 5.467l.17.259c-.085.344-.175.688-.278 1.03-.762.436-.807 1.489-1.474 2.05-.78.942-2.07.902-3.14 1.217-.292-.061-.556-.196-.824-.3a1.203 1.203 0 0 0-.523-.539c-2.345-1.373-3.895-3.75-4.97-6.178-.087-.06-.256-.183-.343-.243-.625-1.405-.971-2.969-1.109-4.482.41-.887.106-1.887.347-2.813.262-1.825 1.15-3.905 3.069-4.477.643-.27 1.447.204 2.013-.222z" fill="#424242" stroke="#424242" stroke-width=".13229"/>
        <g stroke="#000">
            <path d="M62.649 28.65c.823.28 1.548.76 2.251 1.262l-.058.249c-.7-.545-1.677-.78-2.193-1.511zM35.013 29.5c.548.359 1.07 1.261.8 1.888-.26-.635-.564-1.246-.8-1.889zM65.797 31.11l.032-.32c1.416 1.424 2.447 3.186 3.215 5.035-.519-.227-.646-.81-.884-1.264-.59-1.273-1.45-2.395-2.363-3.45zM35.85 31.396c.378-.042.455.42.653.651 1.154 1.974 2.884 3.934 5.247 4.342l-.156.32c-2.66-.696-4.56-2.942-5.744-5.313z" stroke-width=".13229"/>
        </g>
        <path d="M42.051 36.74c.146-.396.67-.343.863-.012-.214.002-.646.01-.863.013z" fill="#0d0d0d" stroke="#0d0d0d" stroke-width=".13229"/>
        <path d="M69.343 37.841c-.043-.402-.387-.897-.019-1.235.651 2.254.926 4.635.537 6.96l-.169-.258c.037-1.82.198-3.694-.35-5.467z" stroke="#000" stroke-width=".13229"/>
        <path d="M28.939 39.016c.439-.159.595-.034.465.37-.481.175-.637.05-.465-.37z" fill="#909090" stroke="#909090" stroke-width=".13229"/>
        <path d="M25.62 41.514c.914-.416 1.62-1.193 2.477-1.707.297-.206.723-.11.87.228.522.878 1.318 1.534 2.038 2.24.204-.311.62-1.134.96-.449-.317.098-.542.31-.674.638l.632.484c.865.479 1.63 1.18 2.62 1.407-.03-.322.05-.608.232-.86.363.196.686.696 1.157.495-.127.312-.138.654-.183.984l-.108.127.267.337a79.874 79.874 0 0 1-.12 2.754 63.378 63.378 0 0 1-.708-.013c.095.36.336 1.105-.315.955l-.03-.228c.41-.127.125-.77-.031-1.013-.318.29-.447.627-.381 1.016-.68.087-.376-.828-.019-1.077-.534.09-.926-.315-1.426-.37l.12-.432c.722-.751 1.386-1.566 2.158-2.262l.5.244c-.045-.239-.137-.715-.185-.953-.41.037-1.026-.066-.923.558-.828.834-1.588 1.73-2.387 2.59l-.584-.042c.018.156.052.471.068.63l-.64-.161c.236-.228.482-.456.712-.691-.633.206-.929-.609-1.598-.58l-.257-.507a8.53 8.53 0 0 1 0 1.22c-.643.036-.389-.654-.264-1.009-.471-.243-.527.537-.956.453-.053-.373.313-.614.463-.913a25.693 25.693 0 0 1-3.214-2.969c-.138-.362-.68-.73-.27-1.124z" fill="#ebebeb" stroke="#ebebeb" stroke-width=".13229"/>
        <path d="M29.478 39.71c.448-.21.588-.08.421.39-.391.162-.532.033-.42-.39z" fill="#d6d6d6" stroke="#d6d6d6" stroke-width=".13229"/>
        <path d="M30.301 40.302c.339.127.313.299-.076.516-.344-.188-.318-.36.076-.516z" fill="#a3a3a3" stroke="#a3a3a3" stroke-width=".13229"/>
        <path d="M58.31 40.604c.087.06.256.182.344.243 1.074 2.429 2.624 4.805 4.969 6.178.23.122.404.302.523.54-2.854-1.291-4.738-4.117-5.836-6.961z" stroke="#000" stroke-width=".13229"/>
        <path d="M30.58 41.048c.219-.386.867-.045.507.318-.214.225-.706-.003-.508-.318zM24.73 42.14l.118-.07.408.322c-.053.651-.89.244-.527-.251z" fill="#cbcbcb" stroke="#cbcbcb" stroke-width=".13229"/>
        <path d="M32.137 42.186c.694-.437.575.936-.015.463.005-.114.013-.347.015-.463z" fill="#efefef" stroke="#efefef" stroke-width=".13229"/>
        <path d="M32.944 42.73c.421-.203.556-.076.408.39-.466.15-.6.021-.408-.39z" fill="#959595" stroke="#959595" stroke-width=".13229"/>
        <path d="M25.243 42.879c.447-.119.597.034.45.46-.427.114-.575-.04-.45-.46z" fill="#949494" stroke="#949494" stroke-width=".13229"/>
        <path d="M86.62 42.932h.116c.138 1.68-.135 3.39-.389 5.059-.576 3.193-1.841 6.46-4.355 8.628l.027-.196c.487-.783 1.206-1.397 1.688-2.19 1.709-2.485 2.28-5.501 2.74-8.422.453-.919-.25-1.958.173-2.88z" stroke="#000" stroke-width=".13229"/>
        <path d="M33.878 43.223c.866.021-.378.894 0 0z" fill="#ccc" stroke="#ccc" stroke-width=".13229"/>
        <path d="M25.806 43.646c.617-.63.693.797.016.426l-.016-.426z" fill="#d6d6d6" stroke="#d6d6d6" stroke-width=".13229"/>
        <path d="M26.542 44.197c.88-.254-.024 1.108-.262.307.066-.077.198-.23.262-.307z" fill="#8e8e8e" stroke="#8e8e8e" stroke-width=".13229"/>
        <path d="M36.463 44.916c-.002-.121-.01-.36-.013-.479.931 1.355 2.45 2.207 3.358 3.596.217.521.243 1.095.33 1.654-1.682-.506-3.452-.802-5.058-1.508.177.005.531.01.709.013.05-.918.1-1.836.119-2.754l-.267-.337.108-.127c.177-.013.537-.044.714-.058z" fill="#868686" stroke="#868686" stroke-width=".13229"/>
        <path d="M27.076 44.821c.426-.381.947.347.389.569-.357.235-.802-.339-.389-.569z" fill="#cbcbcb" stroke="#cbcbcb" stroke-width=".13229"/>
        <path d="M68.1 46.647c.666-.561.71-1.614 1.473-2.05-.445 1.137-1.056 2.33-2.188 2.912-.728.429-1.614.431-2.426.355 1.071-.315 2.36-.275 3.14-1.217z" stroke="#000" stroke-width=".13229"/>
        <path d="M27.846 45.496c.445-.164.587-.021.426.428-.407.148-.55.006-.426-.428z" fill="#9a9a9a" stroke="#9a9a9a" stroke-width=".13229"/>
        <path d="M30.576 46.906c.744-.074-.32 1.032-.272.299l.272-.3z" fill="#d6d6d6" stroke="#d6d6d6" stroke-width=".13229"/>
        <path d="M28.989 47.501c.307-.161.672-.084.947.117 1.895 1.1 4.059 1.537 6.112 2.22 1.28.354 2.564.706 3.844 1.082.646-.03 1.178.346 1.75.605 6.27 3.318 12.638 6.454 19.033 9.525 1.458.622 2.87 1.477 4.466 1.688.974.053.453-1.357 1.283-1.468.815 0 1.596.286 2.4.4 2.289.465 4.773.029 6.713-1.294.5-.379 1.156-.355 1.722-.593.855.46 1.789.778 2.62 1.275-.921.99-2.236 1.442-3.377 2.12-3.156 1.666-6.376 3.206-9.551 4.83-1.244-.441-2.376-1.163-3.575-1.714C51.904 60.61 40.543 54.695 28.87 49.43c-.696-.355-1.45-.593-2.098-1.021.696-.387 1.481-.59 2.217-.908z" fill="#9a9c97" stroke="#9a9c97" stroke-width=".13229"/>
        <path d="M32.095 47.718c.384-.13.527.021.426.453-.45.161-.593.01-.426-.453z" fill="#989898" stroke="#989898" stroke-width=".13229"/>
        <path d="M33.177 47.909c.55-.096.357.759-.074.722-.349-.045-.256-.696.074-.722z" fill="#efefef" stroke="#efefef" stroke-width=".13229"/>
        <path d="M26.232 48.922c3.252 1.212 6.324 2.879 9.504 4.273 10.369 4.977 20.616 10.2 30.91 15.322.136 6.265.02 12.538.059 18.806-.005 7.583 0 15.163 0 22.743-3.387-1.566-6.853-2.97-10.202-4.616-10.697-5.676-21.505-11.145-32.242-16.74-.389-.244-.214-.762-.238-1.13.468-7.406.701-14.822 1.272-22.22.172-4.505.469-9 .736-13.501.04-.982-.005-1.971.201-2.937z" fill="#303030" stroke="#303030" stroke-width=".13229"/>
        <path d="M35.733 49.025c.955-.029-.346.805 0 0z" fill="#8a8a8a" stroke="#8a8a8a" stroke-width=".13229"/>
        <path d="M36.667 49.26c.405-.166.532-.015.373.448-.42.164-.545.013-.373-.447z" fill="#757575" stroke="#757575" stroke-width=".13229"/>
        <path d="M21.83 50.684c1.037-.884 2.442-1.357 3.799-1.135-.164 3.762-.453 7.517-.611 11.28a2.392 2.392 0 0 1-.19.758c-1.432-1.262-2.779-2.637-4.37-3.701-.608-.429-1.34-.942-1.343-1.767-.146-2.14 1.135-4.101 2.714-5.435z" fill="#424242" stroke="#424242" stroke-width=".13229"/>
        <path d="M37.606 49.499c.397-.148.53 0 .395.439-.429.188-.559.04-.395-.44z" fill="#707070" stroke="#707070" stroke-width=".13229"/>
        <path d="M38.67 49.835c.704-.204.06.833-.124.18z" fill="#818181" stroke="#818181" stroke-width=".13229"/>
        <path d="M39.562 50.068c.418-.178.555-.032.41.436-.434.125-.57-.021-.41-.436z" fill="#717171" stroke="#717171" stroke-width=".13229"/>
        <path d="M74.978 64.588c1.73-.99 3.604-1.738 5.202-2.95.444 2.881.463 5.826.341 8.73-1.174-.166-2.384-.399-3.553-.084-3.143.802-5.768 3.146-7.21 6.017-.817 1.675-1.058 3.879.175 5.424 2.915 3.86 6.71 6.987 10.755 9.601.037 2.715.008 5.432.029 8.147-.071 1.45.156 2.95-.106 4.37-4.44 2.022-8.924 3.943-13.364 5.956-.037-7.763-.008-15.525-.016-23.288.037-6.025-.076-12.052.061-18.07 2.561-1.284 5.136-2.546 7.686-3.853z" fill="#303030" stroke="#303030" stroke-width=".13229"/>
        <path d="M66.644 68.517c.183-.26.397-.286.648-.077-.137 6.02-.024 12.046-.06 18.07.007 7.764-.022 15.526.015 23.29l-.063.544c-.109.016-.326.043-.434.056l-.048-.334c0-7.58-.005-15.16 0-22.743-.04-6.268.077-12.54-.058-18.806z" fill="#747474" stroke="#747474" stroke-width=".13229"/>
        <path d="M72.756 73.224c1.844-1.665 4.365-3.011 6.916-2.427 3.114.59 6.194 1.36 9.236 2.252.331.116.71.172.96.453-1.483.068-2.693 1.079-3.812 1.955-2.487 2.196-4.148 5.212-5.003 8.395-.582 2.185-.995 4.559-.272 6.763-.826-.268-1.49-.916-2.22-1.379-2.67-1.968-5.194-4.164-7.319-6.718-.746-.918-1.63-1.88-1.621-3.138-.07-2.42 1.43-4.571 3.135-6.156z" fill="#9a9c97" stroke="#9a9c97" stroke-width=".13229"/>
        <path d="M89.24 73.872c1.452-.415 3.185-.44 4.439.521 1.198.91 1.638 2.482 1.693 3.927.085 2.666-.765 5.273-1.945 7.635-1.119 2.265-2.64 4.456-4.847 5.776-1.688.987-3.844 1.28-5.678.542-1.592-.7-2.166-2.563-2.177-4.175-.016-2.799.81-5.556 2.021-8.061 1.44-2.638 3.514-5.242 6.493-6.165m.635 1.196c-1.693.41-3.077 1.598-4.172 2.908-1.963 2.33-3.075 5.273-3.538 8.26-.164 1.323-.267 2.775.384 3.992.458.879 1.516 1.13 2.434 1.122 2.1.098 3.96-1.222 5.236-2.783 1.736-2.18 2.955-4.776 3.577-7.488.318-1.67.53-3.58-.41-5.093-.749-1.151-2.307-1.201-3.51-.918z" fill="#9a9c97" stroke="#9a9c97" stroke-width=".13229"/>
        <path d="M89.874 75.068c1.204-.283 2.762-.233 3.511.918.94 1.513.728 3.424.41 5.093-.622 2.712-1.841 5.308-3.577 7.488-1.275 1.56-3.135 2.881-5.236 2.783-.918.008-1.976-.243-2.434-1.122-.65-1.217-.548-2.67-.384-3.992.463-2.987 1.575-5.93 3.538-8.26 1.095-1.31 2.479-2.498 4.172-2.908m-1.153 1.466c-.937.383-1.53 1.902-.498 2.516 1.159.502 2.553-.794 2.204-1.987-.235-.688-1.12-.86-1.706-.53z" stroke="#000" stroke-width=".13229"/>
        <path d="M88.71 76.534c.587-.331 1.471-.16 1.707.529.349 1.193-1.046 2.49-2.204 1.987-1.032-.614-.44-2.133.497-2.516z" fill="#dedede" stroke="#dedede" stroke-width=".13229"/>
        <path d="M29.934 92.292c7.355 3.717 14.665 7.535 21.976 11.345-3.205.043-6.446.095-9.584-.648-3.675-.81-7.519-1.892-10.329-4.532-1.307-1.154-2.071-2.815-2.347-4.514a4.556 4.556 0 0 1 .284-1.651z" fill="#9a9c97" stroke="#9a9c97" stroke-width=".13229"/>
        <path d="M30.637 102.981c-1.214-2.26-1.13-4.948-1.121-7.443.648 2.003 2.055 3.704 3.86 4.779 3.148 1.889 6.754 2.828 10.337 3.482 3.043.563 6.162.939 9.252.59.463-.067.844.275 1.244.457 1.828.96 3.656 1.932 5.58 2.691-1.21.704-2.702.68-4.025 1.082-2.394.566-4.862.627-7.305.752-2.968-.143-5.945-.506-8.813-1.307-1.14-.344-2.352-.506-3.384-1.138-1.992-1.127-3.966-2.36-5.625-3.945z" fill="#424242" stroke="#424242" stroke-width=".13229"/>
        <path d="M30.272 103.47c.704.487 1.286 1.13 1.995 1.617 1.394 1.048 2.974 1.807 4.466 2.704-.981 3.924-2.127 7.808-3.156 11.718-2.63-.13-5.26-.4-7.869-.703.484-2.239 1.289-4.406 1.916-6.612.894-2.905 1.754-5.821 2.648-8.724z" fill="#443523" stroke="#443523" stroke-width=".13229"/>
        <path d="M59.924 108.45c-.114-.413.434-.471.677-.632 2.1.97 4.14 2.066 6.244 3.032-.024-.112-.066-.336-.09-.45.109-.013.326-.04.434-.056.757-.05 1.283-.875 2.058-.79.302 2.19.577 4.389 1.011 6.558-.008.722-.204 1.495.164 2.167.035.413.275 1.162-.262 1.334-2.291.22-4.593.07-6.89.116-.48.06-.978-.251-1.42.024-.376-.519-.36-1.178-.466-1.776-.487-3.177-.981-6.352-1.46-9.527zM52.664 109.566c1.05-.169 2.108-.27 3.156-.468.251 1.884.032 3.813.1 5.718-.034 3.616.016 7.236-.073 10.853-2.122-.093-4.258-.082-6.372-.273-.166-3.33-.052-6.68-.121-10.02-.429-1.64-.135-3.375-.204-5.056.037-.105.114-.317.15-.423 1.099-.31 2.24-.225 3.364-.33z" fill="#433528" stroke="#433528" stroke-width=".13229"/>
        <path d="M25.735 119.105c2.49.15 4.966.436 7.45.648-.026 1.095-.558 2.159-.799 3.24-8.038 28.012-16.092 56.018-24.13 84.026-1.682-.111-3.357-.606-5.034-.88-.858-.218-1.778-.231-2.577-.617 6.355-21.754 12.607-43.54 18.94-65.299 2.051-7.04 4.033-14.102 6.15-21.118m1.106 1.135c-1.09.534-1.146 1.99-1.46 3.029-7.774 26.86-15.59 53.707-23.369 80.565-.502 1.632 2.096 2.33 2.823.979 7.42-25.921 14.82-51.853 22.244-77.774.38-1.698 1.373-3.288 1.156-5.093-.027-.749-.434-1.966-1.394-1.706z" fill="#7a4300" stroke="#7a4300" stroke-width=".13229"/>
        <path d="M61.696 119.85c2.445-.24 4.93.011 7.39-.124.447-.05.897.035 1.344.114.294 1.495.386 3.022.6 4.532 3.107 25.82 6.232 51.641 9.338 77.461.693 6.067 1.542 12.118 2.138 18.193-1.728.839-3.398 1.828-5.22 2.458-1.318-8.099-2.48-16.222-3.736-24.33-3.855-25.39-7.713-50.78-11.563-76.17-.135-.691-.103-1.435-.468-2.057l.177-.076m.601.36c.021 1.227.47 2.404.556 3.632 4.937 31.92 9.868 63.838 14.798 95.754-.085 1.294 1.682 1.691 2.569 1.082.849-.801.164-1.992.13-2.955-5.033-30.95-10.018-61.909-15.047-92.865-.093-1.804-1.08-3.447-2.353-4.678l-.653.03z" fill="#794314" stroke="#794314" stroke-width=".13229"/>
        <path d="M26.84 120.24c.961-.26 1.368.957 1.395 1.706.217 1.805-.775 3.395-1.156 5.093-7.424 25.921-14.825 51.853-22.244 77.774-.727 1.352-3.325.653-2.823-.98 7.78-26.857 15.595-53.704 23.368-80.564.315-1.04.37-2.495 1.46-3.03m-.907 2.784c-7.79 26.995-15.676 53.964-23.466 80.959-.232.672.456 1.034 1.003 1.143.35-.146.868-.201.98-.638 6.923-24.257 13.871-48.505 20.8-72.76.77-2.621 1.44-5.275 2.347-7.85.175-1.047.44-2.375-.367-3.222-1.022.214-1.046 1.542-1.297 2.368zM62.305 120.21c.164-.007.49-.02.653-.029 1.273 1.23 2.26 2.874 2.353 4.678 5.03 30.956 10.014 61.914 15.046 92.865.035.963.72 2.154-.13 2.955-.886.609-2.653.212-2.569-1.082-4.929-31.916-9.86-63.835-14.797-95.754-.085-1.228-.535-2.405-.556-3.633m.49.45c1.584 9.605 2.986 19.24 4.505 28.858 3.617 23.44 7.242 46.878 10.864 70.315.267 1.148 2.495.78 1.968-.521-5.138-31.824-10.302-63.648-15.449-95.472a7.289 7.289 0 0 0-1.889-3.18z" stroke="#000" stroke-width=".13229"/>
        <path d="M25.933 123.023c.251-.826.275-2.154 1.297-2.368.807.847.542 2.175.367 3.223-.907 2.574-1.577 5.228-2.347 7.85-6.929 24.254-13.877 48.502-20.8 72.76-.112.436-.63.491-.98.637-.547-.109-1.235-.471-1.003-1.143 7.79-26.995 15.677-53.964 23.466-80.96z" fill="#deac00" stroke="#deac00" stroke-width=".13229"/>
        <path d="M62.781 120.66a7.289 7.289 0 0 1 1.89 3.18c5.145 31.824 10.31 63.648 15.448 95.472.527 1.301-1.701 1.669-1.968.52-3.622-23.436-7.247-46.875-10.864-70.314-1.519-9.617-2.921-19.254-4.506-28.858z" fill="#de9b05" stroke="#de9b05" stroke-width=".13229"/>
        <path d="M49.293 125.674c2.196-.03 4.41.146 6.61.236-.094 14.207-.334 28.413-.522 42.618-.085 3.747-.103 7.496-.246 11.24-1.553-.083-3.088-.477-4.63-.694-.31-6.247-.347-12.512-.514-18.766-.217-11.544-.516-23.088-.698-34.634z" fill="#794314" stroke="#794314" stroke-width=".13229"/>
    </g>
</svg>
