<svg width="462.728" height="599.509" viewBox="0 0 122.433 158.617" xmlns="http://www.w3.org/2000/svg">
    <g stroke-width=".5">
        <path d="M47.206 1.618C48.724.922 50.277.138 51.976.05c2.201.005 4.313 1.01 5.908 2.498 1.929 1.767 3.196 4.114 4.21 6.498l-.138.323c-.958-.966-.945-2.625-1.979-3.546-.738-.796-1.262-1.786-2.074-2.524C56.035 1.395 53.188.022 50.508.84c-2.239.714-4.305 1.862-6.385 2.942-11.975 6.522-23.68 13.52-35.514 20.288-1.741 1.045-3.593 1.968-5.099 3.35 3.85-.117 7.194 2.635 9.157 5.74.477.847.903 1.726 1.371 2.583.937 1.924 1.91 3.842 2.617 5.868.4 1.014.55 2.117 1.04 3.099 2.428 7.098 3.05 14.644 3.756 22.07l-.404-.044c.68 3.045.886 6.294 2.463 9.054 4.395 2.333 8.866 4.53 13.287 6.82.339.154.73.464 1.111.204 8.938-3.979 17.91-7.881 26.82-11.914a538.18 538.18 0 0 0 11.238-4.966c-.815-2.82-1.638-5.646-2.167-8.532-1.04-2.723-1.49-5.625-2.337-8.409-.571-3.048-2.566-5.86-2.037-9.067-.844-3.072-1.492-6.191-2.288-9.273-.556-2.136-1.093-4.276-1.506-6.443-.35-1.767-.952-3.466-1.408-5.202.294-.77-.224-1.545-.314-2.31l.222-.142c.622 2.786 1.654 5.466 2.167 8.281.55 2.757 1.32 5.461 1.976 8.197.548 2.204.982 4.44 1.656 6.614.675.13 1.22.561 1.808.895 13.694 8.077 27.394 16.144 41.086 24.227.902.68 1.64 1.556 2.416 2.376.518.64 1.175 1.204 1.447 2.008.918 1.447 1.667 3.12 1.527 4.876-.13 1.826-1.556 3.593-3.435 3.794-1.682.22-3.624.575-5.109-.473-.751 2.62-1.553 5.223-2.307 7.84.442.56 1.244.793 1.823 1.246 4.35 2.756 8.586 5.834 11.906 9.805.945 1.497 1.215 3.326 1.262 5.067.056 2.021-1.161 3.804-2.59 5.125-3.212 2.95-7.202 4.857-10.911 7.053.35.455.913.685 1.336 1.077-.19 1.035-.193 2.172-.558 3.146-3.18 2.291-6.385 4.55-9.578 6.826-.44.212-.818-.15-1.159-.357-1.36-.905-2.752-1.757-4.096-2.678-7.445 4.326-14.821 8.79-22.333 13.007-1.42.733-2.96 1.484-4.606 1.294-1.921-.225-3.44-1.543-5.101-2.408-2.284-1.153-4.07-3.032-6.236-4.363-1.5-.931-2.903-2.018-4.355-2.997-.789 5.823-1.585 11.657-2.779 17.414 2.077 1.784 4.416 3.286 6.565 5-.305.998-.368 2.049-.58 3.07-3.413 2.35-6.86 4.651-10.27 7.003-11.632-7.18-23.244-14.387-34.883-21.552-.111-.865-.066-1.744-.034-2.61 2.055-1.285 4.233-2.43 6.313-3.703-.956-5.247-1.53-10.552-2.104-15.849-1.077-10.2-1.868-20.425-2.67-30.646-2.008-1.172-4.291-2.18-5.656-4.148-.81-1.49-1.649-2.988-2.164-4.607-.413-1.201-.016-2.468.709-3.45.815-1.495 2.132-2.714 3.765-3.246l.121-.196c-1.447-1.842-1.696-4.233-2.55-6.345-1.858-5.133-3.223-10.43-4.316-15.774C.86 42.435.195 38.431.063 34.391c-.016-1.606-.04-3.268.513-4.794.307-.873 1.019-1.503 1.812-1.932 1.617-1.553 3.57-2.677 5.501-3.791C16.771 18.77 25.613 13.6 34.511 8.526c4.196-2.368 8.366-4.792 12.695-6.908M2.529 28.237c-.974.397-1.527 1.4-1.704 2.394-.35 1.852-.262 3.757-.135 5.63.346 4.44 1.167 8.827 2.138 13.169 1.185 5.077 2.563 10.133 4.566 14.96.688 1.523 1.347 3.134 2.511 4.37 1.334.94 2.874 1.535 4.3 2.32 2.891 1.442 5.73 2.99 8.651 4.369-.439-1.437-1.116-2.808-1.346-4.303-.302-1.83-.516-3.675-.71-5.519-.51-5.598-1.042-11.226-2.428-16.69-1.305-5.429-3.292-10.717-6.152-15.522-1.37-2.149-3.333-3.972-5.704-4.948-1.249-.492-2.71-.786-3.987-.23M70.03 40.212c-.37.751-.108 1.619.019 2.405.404 1.76 1.002 3.506 1.957 5.048 3.44 2.217 6.927 4.368 10.388 6.556 9.08 5.668 18.116 11.409 27.318 16.878.79.384 1.595 1.185 2.54.786 1.51-.622 2.63-1.892 3.664-3.11-1.355-1.515-2.582-3.272-4.45-4.195-5.988-3.53-11.978-7.06-17.965-10.592-7.832-4.577-15.605-9.276-23.471-13.776m1.791 7.969c.707 2.752 1.4 5.511 2.138 8.255l.225.111c.725-.479 1.328-1.64 2.35-1.188 1.851.757 3.502 1.92 5.214 2.942 8.84 5.585 17.746 11.08 26.26 17.163 1.003.617 1.86 1.527 2.974 1.93 1.32-1.453.64-3.533-.12-5.078-3.799-2.037-7.413-4.408-11.101-6.638a3205.115 3205.115 0 0 1-27.94-17.497m2.522 8.945c.362 2.874 1.344 5.623 2.045 8.427l.672.148c-.064.199-.122.4-.175.609.246.971 1.056 1.606 1.84 2.151 1.39.942 2.806 1.852 4.222 2.757l.227-.027c.302-3.455.588-6.91.887-10.363.137-.524-.447-.69-.765-.926-2.066-1.26-4.072-2.633-6.233-3.725-1.061-.448-2.059.132-2.72.95m10.239 3.717c-.249 3.624-.672 7.244-.892 10.871 3.424 2.511 7.017 4.903 10.96 6.514.084-3.598.5-7.217.489-10.792-3.257-2.148-6.588-4.188-9.864-6.302a1.355 1.355 0 0 0-.693-.291m-9.837 6.112l-.003.198c.548.392.527-.675.003-.198M41.279 81.904c-.984.506-2.13.797-3.013 1.434.478.244.936.55 1.455.723 1.661-.958 3.453-1.673 5.167-2.527 5.736-2.725 11.475-5.448 17.214-8.17 4.098-1.964 8.239-3.85 12.252-5.982l.069-.191c-11.022 4.958-22.1 9.797-33.144 14.713m31.329-12.911c-1.148.627-2.437 1.09-3.477 1.855l-.19-.133c-.336.244-.99.236-1.095.693-7.673 4.08-15.367 8.118-23.048 12.179-.942.566-2.037.934-2.879 1.62a425.466 425.466 0 0 0 6.096 3.11c2.514.63 5.117.215 7.652-.044 3.48.13 6.638 1.915 9.435 3.86 1.193.828 2.455 1.569 3.57 2.51.388.36.856.787.825 1.377.415 2.021.915 4.455-.445 6.241-1.46 1.648-3.577 2.463-5.453 3.527-1.024.479-1.96 1.302-3.148 1.286-1.897-.016-3.736-.588-5.615-.741-.082.037-.246.106-.328.143-.143 1.548-.362 3.09-.484 4.643 4.149 2.355 8.17 4.921 12.224 7.432 1.473.884 2.99 1.855 4.736 2.045 1.857.104 3.688-.343 5.458-.86 3.15-.978 6.167-2.357 9.022-4.002 1.974-1.199 3.926-2.44 5.987-3.49 4.141-2.093 7.933-4.787 11.92-7.147 2.095-1.235 3.998-2.764 5.791-4.402.688-.492 1.25-1.135 1.9-1.672.236-.238.574-.403.662-.746 2.024-1.75 4.355-3.784 7.207-3.575-.948-1.111-2.088-2.043-3.204-2.976-4.101-3.332-8.647-6.062-13.266-8.605-2.437-1.367-4.803-2.868-7.348-4.034-2.381-1.075-4.73-2.241-6.93-3.66-2.441-1.484-4.69-3.257-7.1-4.783-1.575-1.045-3.329-1.932-4.485-3.472-1.392.424-2.66 1.226-3.99 1.82m22.934 2.173c.032 2.45-.492 4.926-.238 7.358 3.53 1.804 6.918 3.887 10.395 5.805.394.174.746.553 1.207.54.735-2.554 1.518-5.094 2.235-7.652.106-.397-.373-.524-.592-.728-4.197-2.92-8.377-5.879-12.719-8.583-.317 1.022-.145 2.183-.288 3.26m-90.92 2.312c17.367 9.361 34.694 18.794 52.048 28.178.846.48 1.862.225 2.749.008 2.362-.693 4.54-1.897 6.612-3.21.992-.666 2.018-1.322 2.83-2.211.358-.55-.365-1.008-.706-1.342-1.664-1.264-3.437-2.383-5.175-3.54-2.59-1.502-5.55-2.944-8.628-2.434-2.167.328-4.432.4-6.567-.124-12.906-6.57-25.804-13.158-38.71-19.748-2.149.51-3.95 2.296-4.453 4.423m111.488-4.135c-1.185 1.466-2.68 2.9-4.548 3.31.77 1.495 1.056 3.384.056 4.85 1.365.04 2.775-.016 4.08-.48 1.34-.682 2.14-2.248 1.994-3.738a7.545 7.545 0 0 0-1.582-3.942M4.293 73.946c-.105 1.764.993 3.278 1.694 4.82 1.04 2.442 3.625 3.535 5.762 4.813 8.93 4.813 17.992 9.374 26.98 14.076 4.958 2.53 9.855 5.19 14.909 7.535 1.262.646 2.677.786 4.045 1.072a325.1 325.1 0 0 0-.095-.62c.902-.804.915-2.11.725-3.212-.63.04-1.3.05-1.85-.285-13.287-7.194-26.571-14.396-39.856-21.59-4.112-2.188-8.168-4.508-12.314-6.61m36.068 10.298c.056.42.598.469.937.588 4.455-2.34 8.9-4.697 13.356-7.04 1.278-.742 2.69-1.287 3.907-2.11-6.1 2.77-12.112 5.758-18.2 8.562m-28.019.408c.627 9.763 1.556 19.512 2.469 29.257.735 6.143 1.288 12.327 2.577 18.39.216 1.514 1.63 2.382 2.762 3.216 2.503 1.695 5.201 3.085 7.935 4.37.02-2.532-.038-5.069-.146-7.596-.299-10.768-.56-21.537-.884-32.305-.087-2.63-.024-5.27-.272-7.89-4.834-2.436-9.61-5.003-14.441-7.442m15.052 7.712c.008.836.013 1.678.077 2.516 4.077 2.818 8.128 5.784 12.72 7.713.088-1.13.26-2.25.387-3.374-4.384-2.304-8.8-4.55-13.184-6.855m87.026 4.427c-3.437 2.439-6.06 5.879-9.69 8.08-3.907 2.341-7.67 4.924-11.662 7.122-1.958 1.016-3.903 2.059-5.765 3.244a47.486 47.486 0 0 1-8.604 4.294c-2.593.929-5.31 1.778-8.1 1.585 1.316 1.969 2.472 4.241 2.252 6.686-.29 2.495-1.397 4.802-2.54 7.009 1.368-.283 2.548-1.175 3.781-1.823a734.054 734.054 0 0 1 14.685-8.612c4.487-2.509 8.657-5.54 13.194-7.967 4.712-2.484 9.53-4.807 13.999-7.726 1.852-1.254 3.75-2.584 4.995-4.482.794-1.19 1.003-2.677.778-4.071-.222-1.654-.563-3.628-2.124-4.554-1.797-.91-3.723.199-5.2 1.215m-86.922-1.151c.064 4.31.214 8.622.328 12.935-.013.76.524 1.339.913 1.942 1.196 1.558 2.852 2.672 4.538 3.643 1.751.924 3.426 1.987 5.124 3.006.527-4.667 1.18-9.324 1.662-13.994-4.508-1.95-8.472-4.884-12.565-7.532m31.36 6.71c.215 1.373.093 3.005-1.145 3.886 1.117.15 2.265.45 3.392.222.926-.328 1.736-.912 2.62-1.336 1.613-.894 3.37-1.638 4.701-2.95 1.36-1.41.992-3.564.728-5.318-3.062 2.352-6.48 4.55-10.295 5.495m-17.75-2.622c-.265 1.038-.263 2.12-.435 3.178-.963 7.824-1.907 15.647-2.86 23.474-.614 5.378-1.415 10.747-1.9 16.136a125.278 125.278 0 0 1 10.798 6.887c.09-.016.275-.053.365-.071.754-1.244 1.016-2.72 1.397-4.106 1.445-6.45 2.289-13.015 3.212-19.553.847-6.577 1.685-13.157 2.326-19.756-4.406-1.83-8.49-4.397-12.904-6.189m-13.173 10.589c0 5.723.29 11.456.4 17.184-.09.49.436.686.743.948 2.36 1.764 4.746 3.495 7.082 5.291l.225-.008c.508-4.368 1.061-8.73 1.585-13.1.035-.97.394-1.98.246-2.923a75.746 75.746 0 0 0-5.164-3.066c-1.95-1.109-3.85-2.45-5.117-4.326m24.428 14.282c2.379 2.172 4.948 4.149 7.454 6.18 1.709 1.461 3.746 2.43 5.659 3.586 1.154.732 2.572 1.164 3.934.812.593-.685.895-1.588 1.32-2.384.969-2.183 1.993-4.577 1.464-7.011a10.679 10.679 0 0 0-2.535-4.842c-1.072-.474-2.133-.974-3.125-1.596-4.18-2.56-8.302-5.217-12.562-7.649-.571 4.295-1.024 8.61-1.609 12.904m44.971-4.633c.71.368 1.373.823 2.045 1.267.728-.259 1.31-.82 1.98-1.206 2.68-1.754 5.325-3.572 8.024-5.3-.254-.436-.788-.63-1.146-.968-3.746 1.863-7.376 3.96-10.903 6.207m2.876 1.789c-.138.666-.037 1.362-.058 2.045 3.037-2.096 6.006-4.3 9.048-6.392.175-.678.228-1.384.352-2.064-3.124 2.12-6.199 4.318-9.342 6.41m-4.762-.714c-.217.355.293.416.494.598 1.075.696 2.162 1.376 3.223 2.101l.222-.029c-.032-.6-.034-1.193-.008-1.786-.735-.656-1.664-1.072-2.46-1.65-.543.137-.982.515-1.471.766m-67.093 7.591c.122 3.96.236 7.922.32 11.885l-.272.085c-2.14-.932-4.207-2.035-6.234-3.186-1.563-.936-3.161-1.876-4.434-3.196-.796-.778-.886-1.945-1.098-2.971a129.258 129.258 0 0 0-5.662 3.27c11.4 6.84 22.712 13.832 34.126 20.645 3.365-2.156 6.643-4.455 10.033-6.57l-.056-.132c-1.839-1.442-3.76-2.78-5.606-4.212a8.304 8.304 0 0 1-.257.006c-.35 1.682-.725 3.384-1.437 4.958-.214.465-.717 1.138-1.283.714-3.54-2.614-7.324-4.879-11.102-7.125l-.098-.193c.28-2.739.768-5.48.918-8.213-2.64-1.891-5.185-3.931-7.858-5.765m-17.66 6.41c.023.546-.082 1.117.068 1.66 11.38 6.96 22.693 14.033 34.057 21.015-.037-.695.09-1.412-.074-2.087-11.377-6.816-22.696-13.734-34.051-20.587m34.723 20.582c-.143.677-.042 1.38-.055 2.074 3.167-2.146 6.318-4.315 9.498-6.443.093-.658.368-1.362.262-2.005-3.236 2.124-6.443 4.294-9.705 6.374z" stroke="#000" stroke-width=".13229"/>
        <path d="M50.508.85c2.68-.817 5.527.556 7.395 2.46.812.739 1.336 1.729 2.074 2.525-4.061 2.527-8.279 4.807-12.411 7.223-9.586 5.498-19.167 11.006-28.75 16.507-2.045 1.21-4.162 2.305-6.149 3.606-1.963-3.106-5.307-5.857-9.157-5.741 1.506-1.381 3.358-2.305 5.099-3.35 11.834-6.768 23.54-13.766 35.514-20.288 2.08-1.08 4.146-2.227 6.385-2.942z" fill="#ff2600" stroke="#ff2600" stroke-width=".13229"/>
        <path d="M59.974 5.824c1.035.921 1.022 2.58 1.98 3.546l.04.031c-1.012.067-1.903.575-2.813.956-2.551 1.082-4.927 2.516-7.409 3.738-8.712 4.62-17.306 9.454-25.902 14.287-3.937 2.26-7.937 4.414-11.814 6.776l-.02.585c-.469-.857-.895-1.736-1.371-2.582 1.987-1.302 4.103-2.397 6.149-3.606 9.583-5.501 19.163-11.01 28.749-16.508 4.133-2.415 8.35-4.696 12.411-7.223z" fill="#c33423" stroke="#c33423" stroke-width=".13229"/>
        <path d="M59.18 10.375c.91-.38 1.802-.889 2.813-.955l.254-.016c.077.423.312.815.267 1.265-.026.518.077 1.17.53 1.495.441 1.442.851 2.918 1.084 4.41l-.222.143c-9.001 5.395-18.018 10.768-27.133 15.967-4.611 2.57-9.2 5.186-13.93 7.528-1.476.664-2.937 1.389-4.484 1.873-.628.233-1.239-.048-1.707-.455-.706-2.027-1.68-3.945-2.617-5.868l.021-.585c3.877-2.363 7.877-4.517 11.814-6.776 8.596-4.834 17.19-9.668 25.902-14.287 2.482-1.223 4.858-2.657 7.409-3.739z" fill="#ea402c" stroke="#ea402c" stroke-width=".13229"/>
        <path d="M62.514 10.666c.535-.106.238.786.577 1.04-.013.114-.034.341-.048.455-.452-.325-.555-.976-.529-1.495z" fill="#6a1d13" opacity=".8" stroke="#6a1d13" stroke-width=".13229"/>
        <path d="M36.776 32.68c9.115-5.2 18.132-10.573 27.133-15.968.09.764.608 1.54.314 2.31-1.733.661-3.27 1.751-4.926 2.582a19300.7 19300.7 0 0 1-29.808 16.502c-3.918 2.23-7.937 4.289-11.795 6.617-.489-.982-.64-2.085-1.04-3.098.469.407 1.08.688 1.707.455 1.548-.484 3.008-1.21 4.485-1.873 4.73-2.342 9.318-4.959 13.93-7.528z" fill="#c33423" stroke="#c33423" stroke-width=".13229"/>
        <path d="M59.286 21.593c1.657-.83 3.194-1.92 4.927-2.582.455 1.736 1.058 3.434 1.407 5.202.413 2.167.95 4.307 1.506 6.442.796 3.083 1.445 6.202 2.289 9.274-.53 3.206 1.465 6.019 2.037 9.067.846 2.783 1.296 5.686 2.336 8.408.53 2.887 1.352 5.712 2.167 8.533a538.18 538.18 0 0 1-11.237 4.966c-1.111.032-2.093.6-3.15.865-5.718 1.657-11.574 3.072-17.545 3.32-8.237.408-16.536-2.735-22.582-8.304-.707-7.427-1.328-14.973-3.757-22.072 3.857-2.328 7.876-4.386 11.795-6.617a19300.7 19300.7 0 0 0 29.807-16.502z" fill="#ff2600" stroke="#ff2600" stroke-width=".13229"/>
        <path d="M2.529 28.234c1.278-.555 2.738-.262 3.987.23 2.37.977 4.334 2.8 5.704 4.948 2.86 4.805 4.847 10.094 6.152 15.523 1.386 5.464 1.918 11.091 2.429 16.69.193 1.844.407 3.688.709 5.519.23 1.495.907 2.865 1.346 4.302-2.92-1.379-5.76-2.926-8.651-4.368-1.426-.786-2.966-1.381-4.3-2.32-1.164-1.236-1.823-2.848-2.51-4.372-2.004-4.825-3.382-9.882-4.567-14.959C1.857 45.085 1.036 40.7.69 36.26c-.127-1.873-.214-3.778.135-5.63.177-.995.73-1.998 1.704-2.395z" fill="#c43423" stroke="#c43423" stroke-width=".13229"/>
        <path d="M70.028 40.22c7.866 4.5 15.64 9.2 23.471 13.776 5.988 3.533 11.978 7.062 17.965 10.592 1.868.923 3.096 2.68 4.45 4.196-1.034 1.217-2.153 2.487-3.664 3.109-.945.4-1.749-.403-2.54-.786-9.202-5.47-18.237-11.21-27.318-16.878-3.46-2.188-6.948-4.339-10.387-6.556-.955-1.543-1.553-3.289-1.958-5.048-.127-.786-.389-1.654-.019-2.405z" fill="#cbcbcb" stroke="#cbcbcb" stroke-width=".13229"/>
        <path d="M71.828 48.184a3205.115 3205.115 0 0 0 27.94 17.496c3.687 2.23 7.302 4.601 11.1 6.639.76 1.545 1.44 3.624.12 5.077-1.114-.402-1.971-1.312-2.974-1.929-8.514-6.083-17.42-11.578-26.26-17.163-1.711-1.022-3.362-2.186-5.214-2.942-1.022-.453-1.625.709-2.35 1.188l-.225-.112c-.738-2.743-1.431-5.503-2.137-8.254z" fill="#a2a2a2" stroke="#a2a2a2" stroke-width=".13229"/>
        <path d="M74.341 57.126c.661-.817 1.659-1.397 2.72-.95 2.162 1.093 4.167 2.466 6.233 3.726.318.235.903.402.765.926-.299 3.453-.585 6.908-.886 10.363l-.228.027a192.526 192.526 0 0 1-4.223-2.757c-.783-.545-1.592-1.18-1.838-2.151.053-.21.11-.41.174-.609-.17-.037-.505-.11-.672-.148-.7-2.804-1.682-5.553-2.045-8.427z" fill="#303030" stroke="#303030" stroke-width=".13229"/>
        <path d="M21.047 66.757l.404.045c6.046 5.57 14.346 8.713 22.582 8.305 5.972-.248 11.827-1.664 17.545-3.32 1.058-.265 2.04-.834 3.15-.865-8.91 4.032-17.882 7.934-26.82 11.914-.38.259-.772-.05-1.11-.204-4.422-2.291-8.893-4.487-13.288-6.821-1.577-2.76-1.783-6.009-2.463-9.054z" fill="#c23423" stroke="#c23423" stroke-width=".13229"/>
        <path d="M74.738 66.969c.524-.476.545.59-.003.198z" fill="#4c0f05" stroke="#4c0f05" stroke-width=".13229"/>
        <path d="M41.28 81.918c11.043-4.916 22.12-9.756 33.143-14.714l-.069.19c-4.013 2.133-8.154 4.02-12.252 5.983-5.74 2.722-11.478 5.445-17.214 8.17-1.714.855-3.506 1.57-5.167 2.527-.519-.172-.977-.479-1.455-.722.883-.638 2.029-.93 3.013-1.434z" fill="#c23423" stroke="#c23423" stroke-width=".13229"/>
        <path d="M72.621 69.006c1.331-.595 2.598-1.397 3.99-1.82 1.156 1.54 2.91 2.426 4.485 3.471 2.41 1.527 4.659 3.3 7.101 4.784 2.199 1.418 4.548 2.585 6.93 3.659 2.545 1.167 4.91 2.667 7.347 4.035 4.62 2.542 9.165 5.273 13.266 8.604 1.116.934 2.257 1.865 3.204 2.976-2.852-.209-5.183 1.826-7.207 3.575-2.291-1.215-4.36-2.792-6.57-4.138-8.84-5.697-17.666-11.409-26.505-17.105-3.16-2.085-6.387-4.064-9.517-6.186 1.04-.765 2.328-1.228 3.476-1.855z" fill="#ff2600" stroke="#ff2600" stroke-width=".13229"/>
        <path d="M95.534 71.176c.143-1.077-.03-2.239.288-3.26 4.342 2.704 8.522 5.662 12.719 8.583.22.204.698.33.592.728-.717 2.558-1.5 5.098-2.235 7.651-.46.013-.813-.365-1.207-.54-3.476-1.918-6.866-4-10.395-5.804-.254-2.432.27-4.908.238-7.358z" fill="#303030" stroke="#303030" stroke-width=".13229"/>
        <path d="M4.622 73.477c.502-2.127 2.304-3.913 4.452-4.423 12.907 6.59 25.805 13.178 38.711 19.748 2.135.524 4.4.452 6.567.124 3.077-.51 6.038.932 8.628 2.434 1.738 1.157 3.51 2.276 5.175 3.54.341.334 1.064.792.707 1.342-.813.889-1.84 1.545-2.831 2.212-2.072 1.312-4.25 2.516-6.612 3.21-.887.216-1.903.47-2.75-.009-17.353-9.384-34.68-18.817-52.047-28.178m52.484 17.95c-1.884.349-3.847 1.465-4.463 3.386-.222.984-.328 2.172.444 2.96 2.024 2.498 5.75 3.051 8.644 1.908 1.46-.576 2.86-1.748 3.13-3.365.278-1.416-.526-2.82-1.64-3.64-1.725-1.292-4.03-1.641-6.115-1.25z" fill="#cbcbcb" stroke="#cbcbcb" stroke-width=".13229"/>
        <path d="M116.118 69.35a7.545 7.545 0 0 1 1.582 3.942c.146 1.49-.653 3.056-1.995 3.739-1.304.463-2.714.518-4.08.479 1-1.466.715-3.355-.055-4.85 1.868-.41 3.363-1.844 4.548-3.31z" fill="#a2a2a2" stroke="#a2a2a2" stroke-width=".13229"/>
        <path d="M67.859 71.414c.106-.458.76-.45 1.095-.693l.19.132c3.13 2.122 6.359 4.1 9.518 6.186 8.84 5.696 17.666 11.408 26.505 17.105 2.21 1.346 4.279 2.923 6.57 4.138-.088.344-.426.508-.662.746-.65.537-1.211 1.18-1.9 1.672-8.99-6.315-17.922-12.718-26.878-19.084-4.831-3.373-9.562-6.895-14.438-10.202z" fill="#c33423" stroke="#c33423" stroke-width=".13229"/>
        <path d="M44.798 83.584c7.68-4.06 15.375-8.098 23.048-12.178 4.876 3.307 9.606 6.829 14.438 10.202 8.956 6.366 17.888 12.769 26.878 19.084-1.793 1.638-3.696 3.167-5.791 4.403-3.987 2.36-7.779 5.053-11.92 7.146-2.06 1.05-4.013 2.291-5.987 3.49-2.855 1.646-5.871 3.024-9.022 4.003-1.77.516-3.601.963-5.458.86-1.747-.19-3.263-1.162-4.736-2.045-4.054-2.511-8.075-5.078-12.224-7.432.122-1.553.341-3.096.484-4.644.082-.037.246-.106.328-.143 1.879.154 3.718.725 5.615.741 1.188.016 2.124-.807 3.148-1.286 1.876-1.063 3.993-1.878 5.453-3.527 1.36-1.785.86-4.22.445-6.241.031-.59-.437-1.016-.826-1.376-1.114-.942-2.376-1.683-3.57-2.51-2.796-1.945-5.955-3.731-9.434-3.86-2.535.258-5.138.674-7.652.044a425.466 425.466 0 0 1-6.096-3.111c.842-.686 1.937-1.053 2.879-1.62z" fill="#ff2600" stroke="#ff2600" stroke-width=".13229"/>
        <path d="M4.293 73.954c4.146 2.1 8.202 4.42 12.314 6.609 13.285 7.194 26.57 14.396 39.856 21.59.55.336 1.22.325 1.85.285.19 1.101.177 2.408-.725 3.212l.095.62c-1.368-.286-2.783-.426-4.045-1.072-5.054-2.344-9.951-5.006-14.91-7.535-8.987-4.702-18.05-9.263-26.979-14.076-2.137-1.278-4.722-2.37-5.762-4.813-.701-1.542-1.8-3.056-1.694-4.82M28.45 91.6c-.408.823.83.082 0 0z" fill="#a2a2a2" stroke="#a2a2a2" stroke-width=".13229"/>
        <path d="M40.361 84.246c6.088-2.805 12.1-5.792 18.2-8.562-1.217.823-2.63 1.368-3.907 2.109-4.456 2.344-8.9 4.701-13.356 7.04-.339-.119-.881-.166-.937-.587z" fill="#c23423" stroke="#c23423" stroke-width=".13229"/>
        <path d="M12.342 84.67c4.831 2.439 9.607 5.005 14.44 7.442.25 2.62.186 5.26.273 7.89.323 10.768.585 21.536.884 32.305.108 2.527.167 5.064.146 7.596-2.734-1.286-5.432-2.675-7.935-4.371-1.133-.833-2.546-1.701-2.762-3.215-1.289-6.064-1.842-12.247-2.577-18.39-.913-9.745-1.842-19.495-2.469-29.258z" fill="#303030" stroke="#303030" stroke-width=".13229"/>
        <path d="M57.117 91.442c2.085-.391 4.39-.042 6.114 1.25 1.114.82 1.919 2.224 1.64 3.64-.27 1.616-1.669 2.789-3.13 3.365-2.894 1.143-6.62.59-8.643-1.907-.773-.789-.667-1.977-.445-2.961.617-1.92 2.58-3.037 4.464-3.387m-2.387 1.53c-.545.402-1.159.88-1.286 1.587.993.01 1.866-1.262 2.884-.65-1.198.19-2.458.663-3.23 1.642-.558.667-.288 1.675.365 2.175 1.334 1.13 3.167 1.429 4.866 1.48 1.783-.014 3.722-.3 5.13-1.482.643-.495.91-1.487.376-2.151-.776-.998-2.05-1.474-3.26-1.667.108-.048.323-.143.429-.193 1.232.14 2.24.96 3.225 1.64.037-1.019-.757-1.834-1.53-2.381-2.357-1.532-5.606-1.508-7.969 0z" fill="#010101" stroke="#010101" stroke-width=".13229"/>
        <path d="M28.45 91.601c.83.082-.408.823 0 0z" fill="#7c7c7c" stroke="#7c7c7c" stroke-width=".13229"/>
        <path d="M54.72 92.977c2.362-1.508 5.612-1.532 7.969 0 .772.548 1.566 1.363 1.53 2.381-.985-.68-1.993-1.5-3.226-1.64-.106.05-.32.145-.429.193a10.483 10.483 0 0 0-4.246.003c-1.019-.612-1.892.661-2.884.65.127-.706.74-1.185 1.286-1.587z" fill="#303030" stroke="#303030" stroke-width=".13229"/>
        <path d="M27.394 92.368c4.384 2.305 8.8 4.551 13.184 6.856-.127 1.124-.299 2.243-.386 3.373-4.593-1.929-8.644-4.895-12.721-7.712-.064-.84-.07-1.68-.077-2.517z" fill="#ff2600" stroke="#ff2600" stroke-width=".13229"/>
        <path d="M56.318 93.903a10.483 10.483 0 0 1 4.246-.003c1.21.194 2.485.67 3.26 1.667.534.664.267 1.656-.376 2.151-1.407 1.183-3.347 1.469-5.13 1.482-1.699-.05-3.532-.35-4.866-1.48-.653-.5-.923-1.507-.365-2.174.773-.979 2.032-1.452 3.23-1.643z" fill="#a2a2a2" stroke="#a2a2a2" stroke-width=".13229"/>
        <path d="M114.425 96.787c1.476-1.016 3.402-2.125 5.199-1.214 1.56.926 1.902 2.9 2.124 4.553.225 1.394.016 2.881-.777 4.072-1.247 1.897-3.144 3.228-4.996 4.482-4.468 2.918-9.286 5.241-13.999 7.726-4.537 2.426-8.707 5.458-13.194 7.966a734.054 734.054 0 0 0-14.684 8.612c-1.233.648-2.413 1.54-3.781 1.823 1.143-2.207 2.249-4.514 2.54-7.009.22-2.444-.937-4.717-2.252-6.686 2.789.194 5.506-.656 8.099-1.584a47.486 47.486 0 0 0 8.604-4.295c1.863-1.185 3.807-2.227 5.765-3.243 3.993-2.199 7.755-4.781 11.663-7.123 3.63-2.201 6.252-5.64 9.689-8.08zM27.497 95.65c4.093 2.648 8.057 5.582 12.565 7.532-.481 4.67-1.135 9.326-1.662 13.993-1.698-1.018-3.373-2.082-5.124-3.005-1.686-.971-3.342-2.085-4.538-3.643-.389-.604-.926-1.183-.913-1.942-.114-4.313-.264-8.626-.328-12.936z" fill="#c43423" stroke="#c43423" stroke-width=".13229"/>
        <path d="M58.863 102.37c3.815-.945 7.234-3.144 10.295-5.496.264 1.754.632 3.908-.728 5.318-1.33 1.313-3.087 2.056-4.701 2.95-.884.424-1.694 1.008-2.62 1.337-1.127.227-2.275-.072-3.392-.223 1.239-.88 1.36-2.513 1.146-3.886z" fill="#a2a2a2" stroke="#a2a2a2" stroke-width=".13229"/>
        <path d="M41.107 99.724c4.413 1.791 8.498 4.357 12.904 6.188-.64 6.599-1.48 13.179-2.326 19.756-.923 6.538-1.767 13.102-3.212 19.553-.381 1.386-.643 2.863-1.397 4.106-.09.019-.275.056-.365.072a125.278 125.278 0 0 0-10.798-6.887c.485-5.39 1.286-10.758 1.9-16.137.953-7.826 1.897-15.65 2.86-23.474.172-1.058.17-2.14.434-3.177z" fill="#303030" stroke="#303030" stroke-width=".13229"/>
        <path d="M52.362 124.594c.585-4.294 1.038-8.61 1.609-12.903 4.26 2.431 8.382 5.088 12.562 7.649.992.621 2.053 1.122 3.125 1.595a10.679 10.679 0 0 1 2.535 4.842c.529 2.434-.495 4.829-1.463 7.011-.426.797-.728 1.699-1.32 2.384-1.363.352-2.781-.08-3.935-.812-1.913-1.156-3.95-2.125-5.66-3.585-2.505-2.032-5.074-4.009-7.453-6.18z" fill="#c43423" stroke="#c43423" stroke-width=".13229"/>
        <g fill="#efefef" stroke="#efefef">
            <path d="M97.333 119.964c3.527-2.246 7.157-4.344 10.903-6.207.358.339.892.532 1.146.968-2.699 1.728-5.345 3.546-8.025 5.3-.67.386-1.251.947-1.979 1.206-.672-.444-1.336-.9-2.045-1.267zM100.217 121.763c3.143-2.093 6.218-4.291 9.342-6.41-.124.68-.177 1.386-.352 2.063-3.042 2.093-6.01 4.297-9.048 6.392.02-.682-.08-1.378.058-2.045zM95.455 121.049c.489-.251.928-.63 1.47-.767.797.58 1.726.994 2.461 1.65-.026.593-.024 1.186.008 1.787l-.222.029c-1.061-.725-2.149-1.405-3.223-2.101-.2-.183-.711-.244-.494-.598zM28.354 128.642c2.673 1.834 5.218 3.874 7.858 5.766-.15 2.733-.637 5.474-.918 8.212l.098.193c3.778 2.247 7.562 4.511 11.102 7.125.566.424 1.069-.248 1.283-.714.712-1.574 1.088-3.275 1.437-4.958.063 0 .193-.003.257-.005 1.846 1.43 3.767 2.77 5.606 4.212l.056.132c-3.39 2.114-6.668 4.413-10.033 6.57-11.414-6.813-22.725-13.806-34.126-20.646a129.258 129.258 0 0 1 5.662-3.27c.212 1.027.302 2.193 1.098 2.971 1.273 1.32 2.87 2.26 4.434 3.196 2.027 1.151 4.094 2.255 6.234 3.186l.273-.085c-.085-3.963-.199-7.924-.32-11.885zM10.694 135.045c11.355 6.853 22.674 13.772 34.051 20.587.164.675.037 1.392.074 2.088-11.364-6.983-22.677-14.055-34.057-21.016-.15-.542-.045-1.114-.068-1.659zM45.417 155.63c3.262-2.08 6.47-4.25 9.705-6.374.106.643-.17 1.347-.262 2.005-3.18 2.128-6.331 4.297-9.498 6.443.013-.693-.088-1.397.055-2.074z" stroke-width=".13229"/>
        </g>
    </g>
</svg>
