<svg version="1.1" viewBox="0 0 140.39342 133.54778" xmlns="http://www.w3.org/2000/svg">
	<g transform="translate(0 -163.45)">
		<path d="m0 214.51 43.547 31.439-16.667 51.051l10.576-7.7338-3.2419-1.0462 2.4378-7.5539 8.7263 2.8162 24.857-18.173 43.407 31.628-16.745-51.034 43.496-31.506-53.708.15612-9.4929-29.354-.0356.11017-8.8128-2.8442 2.4378-7.5539 3.4464 1.1123-4.0661-12.572-16.449 51.13zm39.09 58.602 2.4378-7.5539 8.8128 2.8441-2.4378 7.5539zm4.8757-15.108 2.4378-7.5539 8.8128 2.8441-2.4378 7.5539zm4.8757-15.108 2.4378-7.5539 8.8128 2.8442-2.4378 7.5539zm4.8757-15.108 2.4378-7.5539 8.8128 2.8441-2.4378 7.5539zm4.8757-15.108 2.4378-7.5539 8.8128 2.8441-2.4378 7.5539zm4.8757-15.108 2.4378-7.5539 8.8128 2.8441-2.4378 7.5539z" fill="#fefefe" fill-rule="evenodd"/>
	</g>
</svg>
