<svg width="376.872" height="419.339" viewBox="0 0 99.714 110.954" xmlns="http://www.w3.org/2000/svg">
    <g stroke-width=".5">
        <path d="M77.671 4.64c2.374-1.767 4.964-3.206 7.586-4.569 1.953.998 3.918 1.992 5.717 3.257 2.281 1.545 4.734 2.828 6.93 4.498l.545.188c.114 1.108.029 2.233.167 3.339.648.947 1.063 2.135.717 3.278-.114.648-.739 1.13-.627 1.823.079 3.172.156 6.345.222 9.517-.056 1.116.82 2.061.6 3.21.056.833-.584 1.518-.476 2.343.09 3.636.146 7.271.244 10.904.576 1.473-.09 2.984.076 4.495.077 3.701.143 7.403.185 11.104.106.881.138 1.77-.031 2.646-.572 1.035-1.392 2.045-2.59 2.342-.59.246-1.278-.008-1.829.344-2.616 1.516-5.225 3.05-7.834 4.577-.31.161-.376.548-.566.812-.635 1.04-1.818 1.752-3.04 1.786-.36.03-.762-.116-1.066.13-3.03 1.825-6.152 3.513-9.131 5.408-.574 1.638-2.342 2.76-4.075 2.325-3.167 1.855-6.35 3.683-9.495 5.572-.601.884-1.284 1.826-2.371 2.133-.64.28-1.418-.032-2 .4-2.831 1.669-5.68 3.307-8.507 4.987-.576.648-1.045 1.466-1.907 1.794-.646.389-1.458.153-2.096.537-3 1.746-5.992 3.508-8.995 5.25-.826.364-1.138 1.325-1.95 1.724-.773.574-1.829.384-2.604.931-3.265 1.93-6.559 3.813-9.821 5.747-.937.807-2.146 1.14-3.16 1.826-.817.542-1.785.883-2.494 1.569-4.559-2.63-9.139-5.226-13.663-7.911C.385 96.7.229 90.446.208 84.192.142 73 .075 61.808.065 50.619c.585-.897.124-2.082.28-3.098.76-.12 1.368-.627 2.053-.934 2.096-1.058 4.11-2.32 6.26-3.252-.198.416-.661.545-1.026.762-2.149 1.133-4.284 2.294-6.435 3.424-.01.085-.034.254-.047.339 4.844 2.783 9.683 5.572 14.52 8.366.243.232.494-.003.704-.143 3.984-2.826 8.05-5.538 12.011-8.39-4.222-2.654-8.471-5.265-12.71-7.893-1.087.514-2.088 1.215-3.22 1.625l.077-.286c.984-.555 2.111-.947 2.974-1.67.23-1.306.981-2.42 1.674-3.52 2.73-4.176 5.578-8.298 8.901-12.02l.206-.04-.182.38c-3.307 3.81-6.194 7.962-8.932 12.195-.53.879-1.117 1.76-1.347 2.776-.109.439.442.56.701.777 4.043 2.448 8.004 5.046 12.089 7.422.762-.707 1.196-1.675 1.79-2.511 2.33-3.696 4.771-7.329 7.496-10.747.601-.678.754-1.646 1.434-2.265.596-.553 1.34-.94 1.852-1.585 2.715-3.109 5.821-5.863 9.2-8.23.659-.419.929-1.207 1.534-1.684.503-.436 1.165-.59 1.755-.873 3.116-2.161 6.66-3.638 10.26-4.791 1.352-.463 2.778-.651 4.14-1.072.866-.307 1.77-.013 2.654.005 4.18.061 8.374.508 12.441 1.503.701.143 1.357.561 2.085.53 3.995-2.726 8.162-5.197 12.26-7.763-.333-.403-.793-.662-1.217-.95-1.981-1.291-4.042-2.463-5.992-3.808-1.606-1.063-3.323-1.947-5.038-2.817-2.569 1.307-5.082 2.738-7.4 4.45-2.053 1.376-4.34 2.656-6.863 2.76-1.987.121-3.79-.847-5.641-1.395-3.67-1.058-7.588-1.008-11.308-.246-1.437.225-2.784.815-4.212 1.066l.031-.246c4.443-1.397 9.218-2.204 13.835-1.233 2.151.28 4.067 1.45 6.21 1.744 2.836.307 5.474-1.117 7.75-2.64m17.017 5.381c-2.765 1.722-5.55 3.41-8.252 5.228-.46.28-.85.778-1.431.762-4.554-1.42-9.361-1.987-14.121-2.027.76.836 1.556 1.805 1.445 3.025.018 1.394-.966 2.458-1.882 3.347 2.487.026 4.982.375 7.31 1.277 1.583.421 3.065 1.596 4.779 1.186l-.069-.22c-1.873-.476-2.569-2.873-1.595-4.44.886-1.886 3.593-2.6 5.21-1.225 1.092.887 1.132 2.413.873 3.68 1.793-.925 3.51-2.079 5.463-2.642.611-.12.789.568.85 1.029.293 2.37.343 4.765.47 7.151.948-.547 2.043-1.063 3.17-.825.56.071.979.495 1.513.648a517.99 517.99 0 0 1-.227-9.511c-.598.478-1.307.896-2.09.928-1.702.199-3.469-1.06-3.73-2.778-.464-2.212 1.497-4.527 3.746-4.46.687-.003 1.299.335 1.9.629a32.553 32.553 0 0 0-.083-2.273c-1.111.437-2.233.873-3.249 1.511m.468.799c-.941.336-1.759 1.087-2.108 2.035-.638 1.484.193 3.4 1.765 3.852 2.053.82 4.437-1.265 4.077-3.397-.204-1.699-2.05-3.101-3.734-2.49m-26.976 3.381c-2.21.664-3.064 3.996-1.17 5.448 1.736 1.262 4.348-.032 4.71-2.066.59-1.995-1.556-4.133-3.54-3.382M56.86 17.936c-.9.513-1.895.936-2.649 1.648 1.193.045 2.37.773 2.778 1.923.442 1.061.14 2.252-.362 3.234 3.418-1.868 7.022-3.599 10.937-4.112-.664-.442-1.43-.823-1.751-1.609-.82-1.569-.24-3.479.944-4.683-3.463.651-6.757 2.027-9.897 3.599m26.161-1.027c-1.492.548-2.479 2.376-1.868 3.892.566 1.323 2.286 1.826 3.554 1.236 1.6-.585 2.383-2.675 1.497-4.149-.627-1.074-2.066-1.36-3.183-.979m3.688 4.151c-.785 1.043-1.987 1.81-3.33 1.765-.847.238-1.747.527-2.62.21-1.355-.45-2.651-1.067-4.022-1.472-5.172-1.683-10.89-.929-15.776 1.3-3.953 1.7-7.48 4.232-10.774 6.973-6.54 5.673-12.07 12.414-17.047 19.473-.069.699.056 1.442-.28 2.101-.44 1.318-1.794 2.175-3.162 2.16-2.887 1.75-5.874 3.373-8.578 5.407.212.63.042 1.294.045 1.942-.495 11.547-1.042 23.093-1.146 34.65.022 1.661-.045 3.344.305 4.984.648-.058 1.23-.378 1.815-.64 1.63-.799 3.217-1.685 4.802-2.569.315-2.215 2.823-3.733 4.905-2.82 2.773-1.477 5.461-3.122 8.2-4.665.46-.127.41-.664.582-1.008.73-1.886 3.042-2.855 4.926-2.151 2.561-1.566 5.25-2.955 7.77-4.57.302-2.15 2.715-3.566 4.737-2.727 2.945-1.566 5.818-3.318 8.726-4.974.227-.41.27-.903.545-1.291.727-1.36 2.458-2.138 3.937-1.585.378.22.711-.109 1.029-.273 2.659-1.532 5.326-3.05 7.99-4.572.262-1.468 1.326-2.833 2.842-3.116.788-.247 1.587.04 2.347.174 2.259-1.272 4.519-2.545 6.802-3.778-.185-1.416.463-2.831 1.593-3.68.24-2.935.084-5.927.11-8.882-.854-.508-1.563-1.323-1.73-2.326-.312-1.532.455-3.085 1.638-4.035-.045-2.974-.132-5.945-.204-8.919-1.373-1.04-1.96-3.04-1.08-4.582.16-.604.98-.892.86-1.572-.134-2.376-.16-4.768-.494-7.125.016-.445-.386-.844-.825-.558-1.905.711-3.654 1.78-5.438 2.751m-33.601-.714c-2.037.645-2.8 3.902-.847 5.077 2.014 1.207 4.81-.907 4.379-3.172-.159-1.625-2.093-2.59-3.532-1.905M41.133 30.87c1.206-.206 2.53.357 3.08 1.476.452.802.328 1.757.127 2.614l.349-.256c2.955-3.088 6.146-5.977 9.676-8.395-1.218.097-2.593-.175-3.284-1.286-.606-.802-.423-1.847-.476-2.741-3.487 2.458-6.765 5.291-9.472 8.588m54.58-4.998c-1.558.304-2.96 1.638-2.99 3.286-.095 2.061 2.27 3.76 4.191 2.948 1.836-.66 2.604-3.03 1.757-4.726-.487-1.1-1.765-1.839-2.958-1.508m-54.522 5.559c-1.632.378-2.78 2.225-2.291 3.852.225.847 1 1.532 1.892 1.566 1.934.101 3.622-1.979 3.114-3.85-.302-1.137-1.58-1.867-2.715-1.568m52.776.889c.06 2.855.119 5.712.206 8.564 1.477-.77 3.374-.502 4.548.66-.04-3.268-.113-6.536-.206-9.801-1.225 1.117-3.093 1.466-4.548.577M37.99 34.51c-2.815 3.525-5.295 7.3-7.708 11.108-.658.965-1.203 2.1-2.259 2.698-3.575 2.46-7.133 4.943-10.694 7.414l-.096.24c1.755-.36 3.533 1.02 3.673 2.795 2.62-1.969 5.598-3.448 8.265-5.3-.78-.302-1.503-.881-1.709-1.725-.706-2.257 1.577-4.958 3.94-4.18.801.156 1.121.99 1.68 1.42a116.794 116.794 0 0 1 9.358-11.866c-.865.206-1.82.458-2.656.01-1.043-.476-1.516-1.635-1.561-2.72l-.233.107m56.88 6.67c-1.583.624-2.538 2.548-2.004 4.175.336 1.06 1.365 1.733 2.405 1.979 2.12.28 4.207-1.768 3.71-3.924-.22-1.884-2.43-2.947-4.112-2.23m-.616 6.41c.008 2.81.037 5.623-.043 8.435 1.556-.804 3.77-.714 4.763.916.08-3.506-.14-7.017-.106-10.525-1.21 1.124-2.995 1.934-4.614 1.174m-93.646.336C.597 66.116.605 84.303.605 102.49c-.114.408.338.53.592.696 4.223 2.384 8.382 4.884 12.623 7.234.056-1.686.328-3.408-.113-5.065-.178-.918.394-1.73.404-2.624.104-3.265.21-6.53.331-9.795.093-.783-.64-1.347-.64-2.124-.18-1.046.325-2 .804-2.884.114-3.448.254-6.898.333-10.345-1.6-1.366-1.553-4.11.17-5.35.193-3.241.22-6.496.368-9.742.174-.69-.522-1.082-.736-1.656-.603-1.34-.185-2.982.881-3.961l-.032-.323c-4.998-2.87-9.982-5.763-14.983-8.623m29.414.106c-1.559.363-2.511 2.21-2 3.702.333.976 1.497 1.473 2.465 1.198 1.627-.37 2.596-2.42 1.85-3.908-.403-.836-1.432-1.27-2.315-.992m64.914 8.295c-1.55.611-2.548 2.434-2 4.05a4.87 4.87 0 0 0 1.894 2.077c1.334.506 2.982-.058 3.742-1.272.865-1.278.69-3.104-.284-4.273-.814-.947-2.259-1.082-3.352-.582m-77.8.264c-2.113.57-2.987 3.739-1.068 5.035 1.717 1.323 4.106-.365 4.26-2.299.325-1.712-1.538-3.368-3.191-2.736m3.688 2.739c-.08 2.31-2.934 4.265-4.966 2.783-.239.336-.088.794-.149 1.183-.084 2.9-.211 5.797-.28 8.697 1.032-.585 2.442-.741 3.381.103 1.757 1.587 1.313 4.91-.897 5.866-.873.452-1.825.127-2.698-.125-.098 3.273-.23 6.549-.326 9.824 1.334-1.172 3.739-1.016 4.564.67l.429.108c.204-9.348.632-18.687 1.04-28.027-.043-.35.124-.783-.098-1.082m64.967 4.532c.056.323.41.463.598.71.667.706.916 1.722.818 2.677.243-.048.47-.14.68-.28a762.755 762.755 0 0 1 6.522-3.816l.116-.275c-.97-.585-1.788-1.482-2.17-2.559-2.254 1.024-4.354 2.408-6.564 3.543m-3.053.397c-2.064.757-2.614 3.926-.76 5.207 1.903 1.521 4.959-.392 4.724-2.733.058-1.971-2.223-3.31-3.964-2.474m-10.57 7.39l-.114.288a3.76 3.76 0 0 1 1.593 3.323c2.842-1.577 5.601-3.297 8.438-4.884l-.022-.183c-1.045-.661-1.81-1.796-1.759-3.069l-.262.01c-2.614 1.525-5.25 3.01-7.874 4.515m-55.84.529c-1.357.423-2.28 1.897-1.99 3.304.191 1.508 1.943 2.649 3.369 1.987 1.82-.81 2.193-3.484.852-4.881-.574-.585-1.487-.69-2.23-.41m52.67.037c-.977.524-1.628 1.6-1.649 2.706-.077 1.562 1.241 3.054 2.836 3.02 1.897.065 3.35-2.035 2.82-3.808-.399-1.667-2.439-2.82-4.008-1.918m-10.461 7.257c.063.323.452.416.65.651.855.77 1.054 1.992.877 3.082 2.852-1.587 5.63-3.307 8.474-4.907a9.455 9.455 0 0 0-.055-.292c-1.106-.669-1.712-1.95-1.678-3.225-2.8 1.477-5.493 3.167-8.268 4.691m-2.789.41c-1.13.384-1.886 1.54-1.897 2.718-.055 1.473 1.014 3.077 2.588 3.124 2.17.09 3.76-2.492 2.934-4.434-.58-1.341-2.302-1.908-3.625-1.408m-9.773 6.853c-.035.06-.103.188-.138.251 1.183.802 1.588 2.355 1.328 3.704.379-.018.651-.325.98-.481 2.36-1.394 4.74-2.757 7.093-4.165-1.18-.743-1.956-2.071-1.948-3.492-2.468 1.339-4.868 2.802-7.315 4.183m-2.739.402c-.907.304-1.735.963-2.1 1.863-.667 1.505.198 3.482 1.807 3.929 2.026.704 4.095-1.416 3.738-3.427-.029-1.68-1.85-3-3.445-2.365m-26.913.363c-1.587.476-2.458 2.479-1.788 3.979.391.881 1.299 1.381 2.175 1.672 2.137-.13 3.301-2.847 2.267-4.625-.5-.907-1.683-1.299-2.654-1.026m15.888 7.085c.45.54 1.088.937 1.355 1.62.394.724.299 1.56.27 2.354 2.931-1.706 5.873-3.397 8.779-5.143-1.313-.537-2.278-1.871-2.22-3.313l-.315.027c-2.622 1.484-5.186 3.09-7.869 4.455m-12.42-3.768c-.213 1.419-1.37 2.559-2.756 2.858-.894.063-1.622-.574-2.355-.992-.029 3.36-.227 6.717-.296 10.078.661-.66 1.405-1.34 2.386-1.419 1.331-.214 2.728.572 3.284 1.792.54 1.042.426 2.294.08 3.381 3.06-1.654 6.005-3.524 9.056-5.204-1.379-.635-2.374-2.03-2.236-3.593-2.019.915-3.89 2.193-5.982 2.979-.291.08-.585.098-.881.055-.598-3.275-.214-6.627-.3-9.935m9.785 4.128c-2.363.627-2.863 4.27-.767 5.503 1.92 1.164 4.558-.585 4.543-2.751.116-1.9-1.998-3.445-3.776-2.752m-13.322 7.072c-1.479.564-2.405 2.326-1.91 3.858.466 1.664 2.635 2.672 4.157 1.754 1.693-1.085 1.905-3.887.357-5.189-.71-.595-1.746-.772-2.604-.423m-2.013 5.083c-.074.944-.056 1.897-.127 2.844a9.058 9.058 0 0 0 2.585-1.492c-.987-.088-1.725-.768-2.458-1.352z" stroke="#000" stroke-width=".13229"/>
        <path d="M77.87 4.83c2.318-1.71 4.831-3.142 7.4-4.45 1.715.871 3.432 1.755 5.038 2.818 1.95 1.345 4.01 2.517 5.992 3.808.424.288.884.547 1.218.95-4.099 2.566-8.266 5.037-12.261 7.762-.728.032-1.384-.386-2.085-.529-4.067-.995-8.26-1.442-12.44-1.503-.884-.018-1.79-.312-2.654-.005-1.363.42-2.789.609-4.14 1.072-3.602 1.153-7.145 2.63-10.261 4.791-.59.283-1.252.437-1.755.873-.605.477-.875 1.265-1.534 1.683-3.379 2.368-6.485 5.122-9.2 8.231-.513.646-1.256 1.032-1.852 1.585-.68.62-.833 1.587-1.434 2.265-2.725 3.418-5.167 7.05-7.495 10.747-.595.836-1.03 1.804-1.791 2.51-4.085-2.375-8.046-4.973-12.089-7.42-.26-.218-.81-.34-.701-.778.23-1.016.817-1.897 1.347-2.776 2.738-4.233 5.625-8.384 8.932-12.194l.182-.381.072-.18.124-.061c.672-.278 1.032-.963 1.532-1.455 1.159-1.22 2.36-2.405 3.58-3.567.439-.452 1.077-.757 1.317-1.368l.07-.148.187-.074c1.778-1.185 3.342-2.725 5.154-3.892 2.855-2.016 5.908-3.757 9.125-5.128.635-.301 1.413-.383 1.905-.926l.493-.074c1.428-.251 2.775-.841 4.212-1.066 3.72-.762 7.638-.812 11.308.246 1.852.548 3.654 1.516 5.64 1.395 2.525-.104 4.81-1.384 6.864-2.76z" fill="#a62b1c" stroke="#a62b1c" stroke-width=".13229"/>
        <path d="M47.425 7.739c.643-.21 1.246-.58 1.928-.649-.492.543-1.27.625-1.905.926-3.217 1.371-6.27 3.112-9.125 5.128-1.812 1.167-3.376 2.707-5.154 3.892l.03-.217c4.256-3.704 9.019-6.879 14.226-9.08z" stroke="#000" stroke-width=".13229"/>
        <path d="M94.69 10.022c1.015-.638 2.137-1.074 3.248-1.51.058.756.077 1.513.082 2.272-.6-.294-1.212-.632-1.9-.63-2.248-.066-4.209 2.25-3.746 4.461.262 1.717 2.03 2.977 3.73 2.778.784-.032 1.493-.45 2.09-.928.054 3.172.117 6.342.228 9.511-.534-.153-.952-.577-1.513-.648-1.127-.238-2.222.278-3.17.825-.127-2.386-.177-4.78-.47-7.151-.061-.46-.239-1.148-.85-1.03-1.953.564-3.67 1.718-5.463 2.644.259-1.268.22-2.794-.874-3.68-1.616-1.376-4.323-.662-5.21 1.224-.973 1.567-.277 3.964 1.596 4.44l.069.22c-1.714.41-3.196-.765-4.778-1.186-2.329-.902-4.824-1.251-7.31-1.277.915-.89 1.9-1.953 1.88-3.347.112-1.22-.685-2.189-1.444-3.025 4.76.04 9.567.606 14.12 2.027.583.016.972-.481 1.432-.762 2.701-1.818 5.487-3.506 8.252-5.228z" fill="#d93c28" stroke="#d93c28" stroke-width=".13229"/>
        <path d="M95.157 10.821c1.683-.611 3.53.791 3.734 2.49.36 2.132-2.024 4.217-4.077 3.397-1.572-.452-2.403-2.368-1.765-3.852.349-.948 1.167-1.699 2.108-2.035zM68.18 14.202c1.985-.751 4.131 1.387 3.541 3.382-.362 2.034-2.974 3.328-4.71 2.066-1.894-1.452-1.04-4.784 1.17-5.448z" fill="#f7ed00" stroke="#f7ed00" stroke-width=".13229"/>
        <path d="M56.86 17.936c3.14-1.572 6.434-2.948 9.897-3.599-1.185 1.204-1.764 3.114-.944 4.683.32.786 1.087 1.167 1.751 1.609-3.915.513-7.519 2.244-10.937 4.112.502-.982.804-2.173.362-3.234-.407-1.15-1.585-1.878-2.778-1.923.754-.712 1.749-1.135 2.649-1.648z" fill="#d93c28" stroke="#d93c28" stroke-width=".13229"/>
        <path d="M83.021 16.909c1.117-.381 2.556-.095 3.183.979.886 1.474.103 3.564-1.497 4.149-1.268.59-2.988.087-3.554-1.236-.61-1.516.376-3.344 1.868-3.892z" fill="#f7ed00" stroke="#f7ed00" stroke-width=".13229"/>
        <path d="M32.672 17.266l.24-.008c-.24.611-.878.916-1.317 1.368a101.122 101.122 0 0 0-3.58 3.567c-.5.492-.86 1.177-1.532 1.455.294-.767 1.069-1.28 1.556-1.947 1.497-1.527 2.998-3.054 4.633-4.435z" fill="#240906" opacity=".88" stroke="#240906" stroke-width=".13229"/>
        <path d="M86.71 21.06c1.783-.97 3.532-2.04 5.437-2.751.439-.286.84.113.825.558.333 2.357.36 4.75.495 7.125.119.68-.701.968-.86 1.572-.881 1.542-.294 3.542 1.08 4.582.07 2.974.158 5.945.203 8.92-1.183.949-1.95 2.502-1.638 4.034.167 1.003.876 1.818 1.73 2.326-.026 2.955.13 5.947-.11 8.882-1.13.849-1.778 2.264-1.593 3.68a436.318 436.318 0 0 0-6.802 3.778c-.76-.135-1.559-.42-2.347-.174-1.516.283-2.58 1.648-2.842 3.116-2.664 1.522-5.331 3.04-7.99 4.572-.318.164-.651.492-1.03.273-1.478-.553-3.209.225-3.936 1.585-.276.388-.318.88-.545 1.29-2.908 1.657-5.781 3.409-8.726 4.975-2.022-.839-4.435.577-4.736 2.728-2.522 1.614-5.21 3.003-7.771 4.569-1.884-.704-4.196.265-4.926 2.151-.172.344-.122.881-.583 1.008-2.738 1.543-5.426 3.188-8.199 4.665-2.082-.913-4.59.605-4.905 2.82-1.585.884-3.172 1.77-4.802 2.57-.585.261-1.167.581-1.815.64-.35-1.641-.283-3.324-.305-4.985.104-11.557.651-23.103 1.146-34.65-.003-.648.167-1.312-.045-1.942 2.704-2.034 5.691-3.656 8.578-5.408 1.368.016 2.722-.841 3.161-2.159.337-.659.212-1.402.28-2.1 4.978-7.06 10.507-13.801 17.048-19.474 3.294-2.74 6.82-5.273 10.774-6.974 4.886-2.228 10.604-2.982 15.776-1.299 1.371.405 2.667 1.021 4.022 1.471.873.318 1.773.03 2.62-.209 1.343.045 2.545-.722 3.33-1.765m-.415 19.071c-1.238.487-2.225 1.559-2.736 2.739.045.77-.423 2.082.58 2.352-.172.865-1.09 1.876-.283 2.698-.244.32-.238.781-.54 1.05-.09.514-.03.9.275 1.27.839.115 1.561-.322 2.249-.735 1.74-.889 3.294-2.767 2.712-4.836a3.57 3.57 0 0 0-1.254-.035c-.199.368-.722.339-1.032.601-.405.344-.91.564-1.386.788-.207-.77.54-1.034 1.058-1.32.553-.214.913-.72 1.328-1.116.83-.873.881-2.133.746-3.284-.098-.54.78-.227.627-.783-.01-.201-.032-.598-.04-.796-.748.502-1.545.984-2.304 1.407m-6.768 4.575a2.651 2.651 0 0 0-.944-.061c-.463.476-1.104.725-1.64 1.098-.017.132-.054.394-.07.526.138 0 .413 0 .55-.002.08 1.553.085 3.111.075 4.667-.302.225-.376.572-.37.929.288.005.507-.098.656-.307.235-.098.468-.21.7-.33.2-.154.4-.305.607-.45.357-.13.722-.376.828-.765l-.598-.392c-.003-1.278-.098-2.556.002-3.831.252-.394.582-.722.963-.99.077.117.225.355.3.471.087 1.257.121 2.527.034 3.786-.278.22-.466.715-.18 1.003.376-.405.966-.513 1.302-.878.542-.185 1.055-.476 1.36-.984l-.665-.373c.05-1.49.048-2.972-.261-4.424-.977-.757-2.233.349-2.649 1.307m-4.593-.22c-.296.154-.58.33-.823.556-.156.473.003.984-.087 1.47.447.13.82-.219 1.17-.438 1.02-.024.542-1.368.669-2.016a.827.827 0 0 0-.929.428m-1.4 3.368l-.047.283c-.789-.277-1.276.778-2.045.815-.241.373-.194.85.25 1.043.062.704-.377 1.286-.354 1.976-.386.22-.177.741-.272 1.1l-.498.107.003-.506c-.556-.092.053-.891-.513-.923-.085-.609-.056-1.45.587-1.683-.283-.032-.434-.188-.447-.473-.069.502-.706.476-1.003.83-.532.283-1.04.612-1.563.905-.096.516.097.762.576.741.003.111.006.339.008.452l.246.117c.199 1.103.8 2.066 1.106 3.143.392.431.424 1.283-.023 1.651.087.487-.437.593-.628.916a2.199 2.199 0 0 0-1.016.063c.006.55.011 1.098.045 1.648.916-.24 1.583-.93 2.08-1.7.24-.329.18-.877.54-1.064-.056-.347.029-.62.251-.818.01-.894.593-1.614.595-2.498l.186-.116c.008-.611.375-1.1.37-1.72.196-.222.273-.495.233-.82l.188-.159c.02-.796.442-1.468.59-2.217.413-.265.272-.881 1.053-.656.05.346.055.698.021 1.05l.198.138c-.02 1.103.003 2.206.019 3.31-.164.2-.33.4-.5.598v.584c.743-.31 1.344-.86 2.077-1.19.13-.064.391-.193.521-.26.04-.24.077-.481.114-.72-.424.168-.656-.325-.58-.653-.01-1.558-.066-3.114-.05-4.67-.862.252-1.556.91-2.318 1.376m-11.12 7.438c-.003.243-.01.733-.016.976.54.227.836-.405 1.268-.59-.014-.505.19-.953.407-1.394a1.27 1.27 0 0 1 .929-.373c.071.465.423.99.1 1.439-.082.357-.495.352-.653.635-1.381.92-2.54 2.508-2.03 4.244 1.13.37 2.241-.609 2.638-1.572.57.135 1.05 0 1.532-.278.328-.42 1.159-.439.894-1.214l-.558-.124c-.037-1.45.042-2.914-.137-4.355-.381-.075-.707-.672-1.07-.17-1.375.471-2.455 1.627-3.304 2.776m-3.834-.942c.283.135.567.275.847.426-.008 2.333.122 4.667.05 6.998-.46.082-.262.635-.341.952.95-.566 2.077-.987 2.81-1.846l-.67-.344c-.002-.336.006-.672.022-1.006l-.186-.156c.008-2.199-.09-4.397-.058-6.596-.944.193-1.82.868-2.474 1.572m-2.209 1.447c-.619.447-1.392.743-2.003 1.225-.458.146-.712.627-1.198.595-.143.074-.424.22-.564.291-.045.262-.06.524-.045.789.558-.207.572.566.519.915.005 1.953.068 3.905.058 5.858-.201.257-.405.513-.603.77.209.193.479.228.804.098.185-.183.394-.339.635-.466.553-.235.992-.67 1.548-.897.164-.436-.045-.87-.561-.735.082-.86-.098-1.733.071-2.585a5.553 5.553 0 0 0 3.093-3.085 8.432 8.432 0 0 0-.008-2.765c-.574-.17-1.17-.127-1.746-.008M48.5 62.544c-.458.307-1.196.635-1.043 1.312.204.17.416.333.635.49-.169.566-.344 1.132-.473 1.711-.707-.333-.577-1.259-.852-1.873-.254-.346-.675-.137-.881.132-.196.202-.41.381-.64.538-.125.423.063.986-.289 1.304-.053 1-.415 1.918-.577 2.87-.058.003-.169.014-.227.017-.013-1.035-1.22-2.297 0-3.09l-.146-.231c-.968.024-1.582 1.01-2.495 1.193-.18.363-.17.778.207 1.006.468.246.108.883.553 1.137-.146.463.394.736.272 1.202.479.095.019.814.498.873-.109.494.29.72.301 1.137.445-.193.836-.486 1.241-.751.397-.873.606-1.812.778-2.749l.225-.177c.645.415.233 1.637 1.032 1.902.439-.167.825-.45 1.193-.74.632-1.668.9-3.448 1.386-5.16.109-.453.328-.913.215-1.386l.103-.199c.49-.04.846-.83.338-1.09-.529-.048-.91.407-1.354.622m-10.462 6.48c-1.984 1.158-2.83 3.748-2.249 5.892.194.296.122.754.612.73l.113.225c.23-.008.69-.021.921-.03.196-.325.654-.195.89-.492 2.155-1.2 3.126-4.056 2.335-6.347-.317-.706-1.114-.606-1.751-.537-.207.31-.638.262-.87.558m-5.234.823c-.23.416-.222.953.41.765.008 1.304.03 2.611.071 3.916-.206.349-.61-.13-.661-.373-.548-.942-1.447-1.704-1.823-2.718-.24-.029-.646-.2-.738.143-.537.27-1.024.633-1.561.894-.328.082-.23.503-.304.752l.576-.056c.204.627-.185 1.498.25 1.971-.06 1.532.015 3.067.007 4.601-.153.26-.278.55-.516.75-.016.182-.05.542-.069.724a28.333 28.333 0 0 1 1.921-1.167c.326-.127.257-.481.28-.756-.134.008-.402.018-.536.026-.106-1.513.047-3.035-.273-4.514l.527-.023-.03.277c.463.048.379.752.81.842.13.492.62.812.85 1.27.425.49.642 1.468 1.494 1.063.22-.259.553-.42.86-.555.09-2.606-.08-5.215-.037-7.821.217-.262.434-.527.646-.791-.823-.434-1.379.661-2.154.78z" fill="#fff" stroke="#fff" stroke-width=".13229"/>
        <path d="M53.108 20.346c1.44-.685 3.373.28 3.532 1.905.431 2.265-2.365 4.379-4.379 3.172-1.952-1.175-1.19-4.432.847-5.077z" fill="#f7ed00" stroke="#f7ed00" stroke-width=".13229"/>
        <path d="M41.133 30.87c2.707-3.296 5.985-6.13 9.472-8.587.053.894-.13 1.939.476 2.74.69 1.112 2.066 1.384 3.284 1.287-3.53 2.418-6.72 5.307-9.676 8.395l-.35.256c.202-.857.326-1.812-.126-2.614-.55-1.119-1.874-1.682-3.08-1.476z" fill="#d93c28" stroke="#d93c28" stroke-width=".13229"/>
        <path d="M95.713 25.873c1.193-.33 2.471.407 2.958 1.508.847 1.696.08 4.067-1.757 4.726-1.92.812-4.286-.887-4.19-2.948.028-1.648 1.43-2.982 2.99-3.286zM41.191 31.432c1.135-.3 2.413.431 2.715 1.569.508 1.87-1.18 3.95-3.114 3.85-.892-.035-1.667-.72-1.892-1.567-.49-1.627.659-3.474 2.291-3.852z" fill="#f7ed00" stroke="#f7ed00" stroke-width=".13229"/>
        <path d="M93.967 32.32c1.455.89 3.323.54 4.548-.576.093 3.265.167 6.533.206 9.8-1.174-1.161-3.071-1.429-4.548-.659-.087-2.852-.145-5.71-.206-8.564zM37.99 34.512l.233-.106c.045 1.084.518 2.243 1.56 2.72.837.447 1.792.195 2.657-.011a116.794 116.794 0 0 0-9.358 11.866c-.559-.43-.879-1.264-1.68-1.42-2.363-.778-4.646 1.923-3.94 4.18.206.844.929 1.423 1.71 1.725-2.668 1.852-5.647 3.331-8.266 5.3-.14-1.776-1.918-3.154-3.673-2.794l.096-.241c3.56-2.471 7.12-4.953 10.694-7.414 1.056-.598 1.6-1.733 2.26-2.698 2.412-3.808 4.892-7.583 7.707-11.107z" fill="#d93c28" stroke="#d93c28" stroke-width=".13229"/>
        <path d="M86.294 40.131c.76-.423 1.556-.905 2.305-1.407.007.198.029.595.04.796.153.556-.726.243-.628.783.135 1.151.085 2.41-.746 3.284-.415.396-.775.902-1.328 1.116-.519.286-1.265.55-1.058 1.32.476-.224.981-.444 1.386-.788.31-.262.833-.233 1.032-.6a3.57 3.57 0 0 1 1.254.034c.582 2.069-.971 3.947-2.712 4.836-.688.413-1.41.85-2.249.736-.304-.37-.365-.757-.275-1.27.302-.27.296-.73.54-1.05-.807-.823.11-1.834.283-2.7-1.003-.27-.535-1.581-.58-2.351.51-1.18 1.498-2.252 2.736-2.739m-1.143 1.942c.016.58.021 1.16.024 1.741.148.021.444.058.59.08.521.076.278-.545.68-.651.032-.667.013-1.331-.024-1.993-.701-.288-1.016.318-1.27.823m1.199 4.82c-.44.258-.91.485-1.307.803-.498.14-.421.81-.463 1.222 1.312.365 3.063-1.058 2.682-2.437-.351.005-.751.042-.912.413z" stroke="#000" stroke-width=".13229"/>
        <path d="M12.455 41.425c1.132-.41 2.133-1.111 3.22-1.625 4.239 2.628 8.488 5.24 12.71 7.893-3.96 2.852-8.027 5.564-12.011 8.39-.21.14-.46.375-.704.143A7127.935 7127.935 0 0 0 1.15 47.86c.013-.085.037-.254.047-.34 2.151-1.129 4.286-2.29 6.435-3.423.365-.217.828-.346 1.026-.762.098-.013.3-.04.4-.055 1.016-.492 2.167-.908 2.987-1.683l.098-.132.312-.04z" fill="#da3c28" stroke="#da3c28" stroke-width=".13229"/>
        <path d="M85.151 42.073c.254-.505.569-1.111 1.27-.823.037.662.056 1.326.024 1.993-.402.106-.159.727-.68.65-.146-.02-.442-.058-.59-.079a76.185 76.185 0 0 0-.024-1.74z" fill="#fff" stroke="#fff" stroke-width=".13229"/>
        <path d="M94.87 41.182c1.682-.717 3.891.346 4.11 2.23.498 2.156-1.59 4.204-3.709 3.924-1.04-.246-2.069-.918-2.405-1.98-.534-1.626.42-3.55 2.003-4.174z" fill="#f7ed00" stroke="#f7ed00" stroke-width=".13229"/>
        <path d="M8.976 42.989c1.077-.328 1.982-1.252 3.069-1.392-.82.775-1.971 1.19-2.987 1.683z" fill="#260a07" opacity=".87" stroke="#260a07" stroke-width=".13229"/>
        <path d="M79.526 44.706c.416-.958 1.672-2.064 2.649-1.307.31 1.452.312 2.934.261 4.424.167.092.498.28.665.373-.305.508-.818.799-1.36.984-.336.365-.926.473-1.302.878-.286-.288-.098-.783.18-1.003.087-1.259.053-2.529-.035-3.786-.074-.116-.222-.354-.299-.47a3.536 3.536 0 0 0-.963.989c-.1 1.275-.005 2.553-.002 3.831l.598.392c-.106.389-.471.635-.828.764-.207.146-.408.297-.606.45a8.842 8.842 0 0 1-.701.33c-.149.21-.368.313-.657.308-.005-.357.07-.704.37-.929.011-1.556.006-3.114-.073-4.667-.138.002-.413.002-.55.002.015-.132.052-.394.068-.526.537-.373 1.178-.622 1.64-1.098.315-.037.63-.016.945.06z" stroke="#000" stroke-width=".13229"/>
        <path d="M74.933 44.486a.827.827 0 0 1 .929-.428c-.127.648.352 1.992-.67 2.016.106-.12.315-.363.421-.482-.003-.434-.005-.865-.005-1.296l-.675.19z" fill="#949494" stroke="#949494" stroke-width=".13229"/>
        <path d="M74.11 45.042c.244-.225.527-.402.823-.556l.675-.19c0 .431.002.862.005 1.296-.106.12-.315.363-.42.482-.35.22-.723.569-1.17.439.09-.487-.069-.998.087-1.471z" stroke="#000" stroke-width=".13229"/>
        <path d="M86.35 46.894c.161-.37.56-.408.912-.413.381 1.379-1.37 2.802-2.682 2.437.042-.413-.035-1.082.463-1.222-.183.37-.23.751-.14 1.14 1.042-.148 2.127-.916 2.243-2.035-.201.021-.598.07-.796.093z" fill="#7c7c7c" stroke="#7c7c7c" stroke-width=".13229"/>
        <path d="M94.253 47.592c1.619.76 3.405-.05 4.614-1.174-.034 3.508.185 7.019.106 10.525-.992-1.63-3.207-1.72-4.763-.916.08-2.812.05-5.625.043-8.435z" fill="#d93c28" stroke="#d93c28" stroke-width=".13229"/>
        <path d="M73.533 47.854c.762-.465 1.456-1.124 2.318-1.376-.016 1.556.04 3.112.05 4.67-.076.328.156.82.58.654-.037.238-.074.479-.114.72-.13.066-.392.195-.521.259-.733.33-1.334.88-2.077 1.19v-.584c.17-.199.336-.397.5-.598-.016-1.104-.04-2.207-.019-3.31l-.198-.138c.034-.352.03-.704-.021-1.05-.78-.225-.64.391-1.053.656-.148.749-.57 1.42-.59 2.217l-.188.159c.04.325-.037.598-.233.82.005.62-.362 1.109-.37 1.72l-.186.116c-.002.884-.584 1.604-.595 2.498-.222.198-.307.47-.251.818-.36.187-.3.735-.54 1.063-.497.77-1.164 1.46-2.08 1.701-.034-.55-.04-1.098-.045-1.648a2.199 2.199 0 0 1 1.016-.063c.191-.323.715-.43.628-.916.447-.368.415-1.22.023-1.65-.307-1.078-.907-2.04-1.106-3.144l-.246-.117c-.002-.113-.005-.34-.008-.452-.479.021-.672-.225-.576-.74.523-.294 1.031-.623 1.563-.906.297-.354.934-.328 1.003-.83.013.285.164.441.447.473-.643.233-.672 1.074-.587 1.683.566.032-.043.83.513.923l-.003.506.498-.106c.095-.36-.114-.881.272-1.1-.023-.691.416-1.273.355-1.977-.445-.193-.492-.67-.251-1.043.77-.037 1.256-1.092 2.045-.815z" stroke="#000" stroke-width=".13229"/>
        <path d="M86.35 46.894c.198-.024.595-.072.796-.093-.116 1.12-1.201 1.887-2.244 2.035-.09-.389-.042-.77.14-1.14.397-.318.868-.545 1.308-.802z" fill="#fff" stroke="#fff" stroke-width=".13229"/>
        <path d="M.607 47.928c5 2.86 9.985 5.752 14.983 8.623l.032.323c-1.066.979-1.484 2.622-.88 3.96.213.575.91.966.735 1.657-.149 3.246-.175 6.5-.368 9.742-1.723 1.24-1.77 3.984-.17 5.35-.079 3.447-.22 6.897-.333 10.345-.479.883-.984 1.838-.804 2.884 0 .777.733 1.34.64 2.124-.122 3.265-.227 6.53-.33 9.795-.011.894-.583 1.706-.405 2.624.441 1.657.169 3.38.113 5.065-4.24-2.35-8.4-4.85-12.623-7.234-.254-.167-.706-.288-.592-.696 0-18.187-.008-36.374.002-54.562z" fill="#a62b1c" stroke="#a62b1c" stroke-width=".13229"/>
        <path d="M30.02 48.034c.884-.278 1.913.156 2.316.992.746 1.487-.223 3.538-1.85 3.908-.968.275-2.132-.222-2.466-1.198-.51-1.493.442-3.34 2-3.702z" fill="#f7ed00" stroke="#f7ed00" stroke-width=".13229"/>
        <g stroke="#000">
            <path d="M62.413 55.292c.85-1.149 1.929-2.305 3.305-2.776.362-.502.688.095 1.069.17.18 1.441.1 2.905.137 4.355l.558.124c.265.775-.566.794-.894 1.214-.481.278-.963.413-1.532.278-.397.963-1.508 1.942-2.638 1.572-.51-1.736.649-3.323 2.03-4.244.158-.283.571-.278.653-.635.323-.45-.029-.974-.1-1.44a1.27 1.27 0 0 0-.929.374c-.217.441-.42.889-.407 1.394-.432.185-.728.817-1.268.59.005-.243.013-.733.016-.976m1.558 3.389c.675.01.956-.71 1.273-1.154.01-.24.03-.722.037-.963-1.008-.243-1.558 1.28-1.31 2.117zM58.58 54.35c.653-.704 1.529-1.379 2.473-1.572-.032 2.199.066 4.397.058 6.596l.186.156c-.016.334-.024.67-.022 1.006l.67.344c-.733.86-1.86 1.28-2.81 1.846.08-.317-.12-.87.341-.952.072-2.331-.058-4.665-.05-6.998-.28-.151-.564-.291-.847-.426zM56.37 55.797c.577-.12 1.172-.161 1.746.008.151.913.162 1.852.008 2.765a5.553 5.553 0 0 1-3.093 3.085c-.169.852.01 1.725-.071 2.585.516-.135.725.299.56.735-.555.228-.994.662-1.547.897-.24.127-.45.283-.635.466-.325.13-.595.095-.804-.098.198-.257.402-.513.603-.77.01-1.953-.053-3.905-.058-5.858.053-.349.04-1.122-.519-.915-.016-.265 0-.527.045-.789l.564-.29c.486.031.74-.45 1.198-.596.611-.482 1.384-.778 2.003-1.225m-1.325 1.64c-.297 1.027-.027 2.138-.125 3.2.87.012 1.291-.898 1.609-1.517.018-.484.024-.968.026-1.45a59.79 59.79 0 0 1-.31-.566c-.454-.127-.772.291-1.2.333z" stroke-width=".13229"/>
        </g>
        <path d="M94.935 56.329c1.093-.5 2.538-.365 3.352.582.974 1.17 1.149 2.995.284 4.273-.76 1.214-2.408 1.778-3.742 1.272a4.87 4.87 0 0 1-1.894-2.076c-.548-1.617.45-3.44 2-4.051zM17.136 56.593c1.653-.632 3.516 1.024 3.19 2.736-.153 1.934-2.542 3.622-4.26 2.3-1.918-1.297-1.044-4.467 1.07-5.036z" fill="#f7ed00" stroke="#f7ed00" stroke-width=".13229"/>
        <path d="M63.971 58.68c-.248-.835.302-2.36 1.31-2.116-.008.241-.026.723-.037.963-.317.445-.598 1.164-1.273 1.154zM55.045 57.437c.428-.042.746-.46 1.2-.333.077.143.23.423.31.566-.002.482-.008.966-.026 1.45-.318.62-.738 1.53-1.609 1.516.098-1.06-.172-2.172.125-3.199z" fill="#fff" stroke="#fff" stroke-width=".13229"/>
        <path d="M20.824 59.332c.222.299.055.733.098 1.082-.408 9.34-.836 18.68-1.04 28.027l-.429-.109c-.825-1.685-3.23-1.841-4.564-.669.095-3.275.228-6.551.326-9.824.873.252 1.825.577 2.698.125 2.21-.956 2.654-4.279.897-5.866-.939-.844-2.35-.688-3.381-.103.069-2.9.196-5.797.28-8.697.061-.39-.09-.847.149-1.183 2.032 1.482 4.886-.473 4.966-2.783zM85.791 63.864c2.21-1.135 4.31-2.519 6.565-3.543.38 1.077 1.198 1.974 2.17 2.559l-.117.275a762.755 762.755 0 0 0-6.522 3.815c-.21.14-.437.233-.68.28.098-.954-.15-1.97-.818-2.677-.188-.246-.542-.386-.598-.709z" fill="#d93c28" stroke="#d93c28" stroke-width=".13229"/>
        <path d="M48.499 62.544c.444-.215.825-.67 1.354-.622.508.26.151 1.05-.338 1.09l.264-.749c-.772.241-1.696.643-2.103 1.373.804.254.437 1.207.347 1.802-.204.585-.133 1.315-.617 1.765-.325-.99-.698-1.963-.94-2.976-.145.02-.436.068-.581.09.206-.27.627-.48.88-.133.276.614.146 1.54.853 1.873.13-.579.304-1.145.473-1.711-.22-.157-.43-.32-.635-.49-.153-.677.585-1.005 1.043-1.312z" fill="#c1c1c1" stroke="#c1c1c1" stroke-width=".13229"/>
        <path d="M47.676 63.636c.407-.73 1.33-1.132 2.103-1.373l-.264.75-.103.198c-.784 1.976-1.13 4.111-1.71 6.156-.222.418-.69.789-1.18.768-.25-.84-.444-1.704-.799-2.503-.116.016-.346.053-.46.071-.103 1.294-.616 2.516-.68 3.818-.405.265-.796.558-1.24.751-.011-.418-.41-.643-.302-1.137-.48-.059-.019-.778-.498-.873.122-.466-.418-.739-.272-1.202-.445-.254-.085-.891-.553-1.137-.376-.228-.387-.643-.207-1.006.913-.182 1.527-1.17 2.495-1.193l.146.23c-1.22.794-.013 2.056 0 3.09.058-.002.17-.013.227-.015.162-.953.524-1.87.577-2.871.352-.318.164-.881.288-1.304.23-.157.445-.336.64-.538.146-.02.437-.068.583-.09.24 1.014.614 1.988.94 2.977.483-.45.412-1.18.616-1.765.09-.595.457-1.548-.347-1.802z" stroke="#000" stroke-width=".13229"/>
        <path d="M47.702 69.367c.58-2.045.926-4.18 1.71-6.156.113.473-.106.933-.215 1.386-.487 1.712-.754 3.492-1.386 5.16-.368.29-.754.573-1.193.74-.8-.265-.387-1.487-1.032-1.902l-.225.177c-.172.937-.381 1.876-.778 2.749.064-1.302.577-2.524.68-3.818.114-.018.344-.055.46-.071.355.799.548 1.664.8 2.503.489.02.957-.35 1.18-.768z" fill="#a9a9a9" stroke="#a9a9a9" stroke-width=".13229"/>
        <path d="M82.738 64.26c1.741-.835 4.022.504 3.964 2.475.235 2.341-2.82 4.254-4.723 2.733-1.855-1.28-1.305-4.45.76-5.207z" fill="#f7ed00" stroke="#f7ed00" stroke-width=".13229"/>
        <path d="M72.168 71.65c2.625-1.505 5.26-2.99 7.874-4.513l.262-.01c-.05 1.272.714 2.407 1.76 3.068l.02.183c-2.836 1.587-5.595 3.307-8.437 4.884a3.76 3.76 0 0 0-1.593-3.323c.03-.071.085-.217.114-.288z" fill="#d93c28" stroke="#d93c28" stroke-width=".13229"/>
        <path d="M38.037 69.023c.233-.296.664-.248.87-.558.638-.069 1.435-.17 1.752.537.791 2.291-.18 5.146-2.336 6.347-.235.297-.693.167-.889.493-.23.008-.69.02-.92.029l-.114-.225c-.49.024-.418-.434-.612-.73-.582-2.144.265-4.734 2.25-5.893m-.577 2.485c.034 1.018-.172 2.196.34 3.064l.533-.053c1.177-1.016.746-2.76.743-4.128-.069-.161-.201-.487-.27-.65-.965-.207-1.418.97-1.346 1.767zM32.804 69.846c.775-.119 1.33-1.214 2.154-.78-.212.264-.429.529-.646.79-.042 2.607.127 5.216.037 7.822-.307.135-.64.296-.86.555-.852.405-1.069-.574-1.495-1.063-.23-.458-.72-.778-.849-1.27-.431-.09-.347-.794-.81-.842l.03-.277-.527.023c.32 1.48.167 3 .273 4.514.134-.008.402-.018.537-.026-.024.275.045.63-.28.756-.654.368-1.3.75-1.922 1.167.019-.182.053-.542.07-.725.237-.198.362-.49.515-.749.008-1.534-.066-3.069-.008-4.6-.434-.474-.045-1.345-.249-1.972l-.576.056c.074-.249-.024-.67.304-.752.537-.261 1.024-.624 1.56-.894.093-.344.498-.172.74-.143.375 1.014 1.274 1.776 1.822 2.718.05.243.455.722.661.373a148.68 148.68 0 0 1-.071-3.916c-.632.188-.64-.35-.41-.765z" stroke="#000" stroke-width=".13229"/>
        <path d="M37.46 71.508c-.07-.797.382-1.974 1.347-1.768.069.164.201.49.27.651.003 1.368.434 3.112-.743 4.128l-.532.053c-.513-.868-.307-2.046-.341-3.064z" fill="#fff" stroke="#fff" stroke-width=".13229"/>
        <path d="M16.329 72.18c.743-.28 1.656-.175 2.23.41 1.341 1.397.968 4.072-.852 4.881-1.426.662-3.178-.479-3.368-1.987-.291-1.407.632-2.88 1.99-3.304zM68.998 72.217c1.57-.902 3.61.251 4.009 1.918.529 1.773-.924 3.873-2.82 3.807-1.596.035-2.914-1.457-2.837-3.019.021-1.105.672-2.182 1.648-2.706z" fill="#f7ed00" stroke="#f7ed00" stroke-width=".13229"/>
        <path d="M58.537 79.474c2.775-1.524 5.469-3.214 8.268-4.69-.034 1.275.572 2.555 1.678 3.224.015.072.042.217.055.292-2.844 1.6-5.622 3.32-8.474 4.907.177-1.09-.022-2.312-.876-3.082-.199-.235-.588-.328-.651-.65z" fill="#d93c28" stroke="#d93c28" stroke-width=".13229"/>
        <path d="M55.748 79.884c1.323-.5 3.046.067 3.625 1.408.826 1.942-.765 4.524-2.934 4.434-1.574-.047-2.643-1.65-2.588-3.124.01-1.178.768-2.334 1.897-2.718z" fill="#f7ed00" stroke="#f7ed00" stroke-width=".13229"/>
        <path d="M45.975 86.737c2.447-1.381 4.847-2.844 7.315-4.183-.008 1.42.768 2.749 1.948 3.492-2.352 1.408-4.734 2.77-7.094 4.165-.328.156-.6.463-.979.481.26-1.349-.145-2.902-1.328-3.704.035-.063.103-.19.138-.251z" fill="#d93c28" stroke="#d93c28" stroke-width=".13229"/>
        <path d="M43.236 87.14c1.596-.636 3.416.684 3.445 2.364.357 2.011-1.712 4.13-3.738 3.427-1.609-.447-2.474-2.424-1.807-3.93.365-.899 1.193-1.558 2.1-1.862zM16.323 87.502c.971-.273 2.154.119 2.654 1.026 1.034 1.778-.13 4.495-2.267 4.625-.876-.291-1.784-.791-2.175-1.672-.67-1.5.2-3.503 1.788-3.98z" fill="#f7ed00" stroke="#f7ed00" stroke-width=".13229"/>
        <path d="M32.211 94.587c2.683-1.365 5.247-2.971 7.869-4.455l.315-.027c-.058 1.442.907 2.776 2.22 3.313-2.906 1.746-5.848 3.437-8.78 5.143.03-.794.125-1.63-.27-2.355-.266-.682-.904-1.08-1.354-1.619zM19.792 90.82c.085 3.307-.3 6.659.299 9.934.296.043.59.024.88-.055 2.094-.786 3.964-2.064 5.983-2.98-.138 1.564.857 2.959 2.236 3.594-3.05 1.68-5.996 3.55-9.057 5.204.347-1.087.46-2.339-.08-3.381-.555-1.22-1.952-2.006-3.283-1.792-.981.08-1.725.76-2.386 1.419.069-3.36.267-6.718.296-10.078.733.418 1.46 1.055 2.355.992 1.386-.3 2.543-1.44 2.757-2.858z" fill="#d93c28" stroke="#d93c28" stroke-width=".13229"/>
        <path d="M29.576 94.947c1.778-.693 3.892.852 3.776 2.752.015 2.166-2.622 3.915-4.543 2.751-2.096-1.233-1.596-4.876.767-5.503zM16.254 102.02c.858-.35 1.895-.173 2.604.422 1.548 1.302 1.336 4.104-.357 5.189-1.522.918-3.691-.09-4.157-1.754-.495-1.532.431-3.294 1.91-3.858z" fill="#f7ed00" stroke="#f7ed00" stroke-width=".13229"/>
        <path d="M14.241 107.102c.733.584 1.471 1.264 2.458 1.352a9.058 9.058 0 0 1-2.585 1.492c.071-.947.053-1.9.127-2.844z" fill="#d93c28" stroke="#d93c28" stroke-width=".13229"/>
    </g>
</svg>
