<svg width="164.466" height="348.945" viewBox="0 0 43.515 92.325" xmlns="http://www.w3.org/2000/svg">
    <g stroke-width=".5">
        <path d="M28.207 2.893c2.718-1.28 5.61-2.225 8.58-2.698 1.006-.096 2.189-.342 3.06.322.38.487.444 1.146.39 1.75-.266.449-.637.843-1.002 1.219-.442.119-.902.058-1.35.071-1.939-.066-3.748.741-5.595 1.207-1.42.447-3.183.815-3.847 2.328-.736 1.73-.96 3.62-1.42 5.432-.512 2.275-1.046 4.543-1.575 6.816 5.035.494 10.202 1.79 14.29 4.902 2.193 1.664 3.934 4.252 3.685 7.115-.33 2.37-.515 4.762-.79 7.14-.101.86-.892 1.377-1.464 1.935.072 6.352-1.032 12.639-1.344 18.973-.521 7.532-.889 15.086-1.9 22.574-.365 1.997-.56 4.175-1.815 5.852-1.727 1.728-4.146 2.49-6.434 3.16-5.763 1.476-11.962 1.852-17.711.116-2.151-.646-4.405-1.561-5.779-3.43-.992-1.378-.941-3.142-1.108-4.754-.598-7.93-.929-15.872-1.257-23.814-.206-5.834-.466-11.666-.466-17.502-.984-.54-1.833-1.44-2.04-2.577-.216-1.77-.23-3.562-.507-5.318-.91-1.763-1.009-3.927-.16-5.726 1.125-2.46 3.38-4.175 5.702-5.432 4.787-2.519 10.264-3.323 15.613-3.429 1.093-4.278 2.337-8.522 3.387-12.805.373-.617-.019-1.474.609-1.956.568-.74 1.468-1.021 2.248-1.47m5.078-1.353l-.058.048c-.855.103-1.649.555-2.488.767-.15.28-.396.35-.735.204l.098.071c-.397.236-1.334.162-1.228.828l.013.456.027.301-.069.228.23.211-.013.16c-.587.293.087.848.423.436 1.048-.588 2.23-.85 3.371-1.196 1.397-.381 2.765-.887 4.218-1.024.709-.019 1.423.045 2.13-.045l-.085-.156-.188-.741.643.275c-.013-.384-.177-.823.069-1.15l-.66.094.302-.619c-.103-.008-.306-.02-.407-.029-1.9-.174-3.784.368-5.593.881m-5.66 2.247c-.447.22-.465.42-.053.608.056.056.172.167.228.22l-.005.22.211.026.302.378.066.251.19-.042-.076-.251c.058-.381-.196-.786-.408-1.09l-.026-.225.238-.1c.236.438.33.354.289-.257.058-.556-1-.05-.956.262M26.37 5.034l-.305-.014a8.54 8.54 0 0 1-.068.247c.4-.003.642.354 1.02.41-.116-.175-.348-.53-.465-.704l.431.08c.23.073.948.912.781.2-.294-.233-.35-.796-.807-.756l.003-.297c-.268.217-.672.402-.59.834m-.395 1.153c-.378 1.405-.746 2.8-1.069 4.22l-.023.037c-1.508 5.173-2.818 10.438-4.329 15.624-.193.627-.328 1.296-.124 1.95l.24-.037.032.296.122-.389.116.328.334.04c.016.106.047.32.066.429.048-.072.145-.217.193-.292l.431.12c.088.037.26.113.344.15.413.059 1.03.093 1.072-.476.222-1.24.008-2.537.378-3.757-.042-.056-.13-.164-.172-.22l.159-.04-.008-.129.098.124c-.008-.642.19-1.238.333-1.849.929-3.683 1.768-7.384 2.606-11.088.381-1.644.612-3.369 1.453-4.863-.122-.027-.363-.08-.484-.109l-.148-.053c-.13-.053-.39-.153-.519-.206l-.28-.159-.379.04c-.161-.421-.595-.014-.442.31m2.114-.435l.03.212.227.008-.037-.214-.22-.006m-16.99 15.444c-2.885.889-5.726 2.175-7.952 4.257C1.676 26.838.524 28.74.591 30.817c.045 2.043 1.233 3.868 2.701 5.21 2.357 2.135 5.352 3.415 8.38 4.291 5.95 1.63 12.3 1.736 18.327.455 3.362-.767 6.704-1.982 9.45-4.117 1.662-1.323 3.141-3.124 3.395-5.3.23-1.719-.431-3.444-1.49-4.778-1.526-1.926-3.675-3.243-5.89-4.243-3.195-1.41-6.65-2.154-10.12-2.48-.27.969-.539 1.948-.708 2.943 2.59.322 5.196 1.002 7.421 2.405 1.33.852 2.59 2.087 2.858 3.712.256 1.49-.55 2.942-1.636 3.91-1.812 1.62-4.175 2.463-6.51 2.985-4.295.88-8.848.735-13.013-.68-1.865-.68-3.746-1.64-4.95-3.273-.78-1.043-1.066-2.48-.566-3.702.605-1.569 2.018-2.645 3.452-3.42 2.85-1.496 6.099-2.038 9.287-2.13.267-.974.537-1.943.8-2.914-3.607.022-7.227.453-10.682 1.506m6.932 2.17c-2.725.394-5.514 1.158-7.702 2.9-1.18.928-2.124 2.439-1.714 3.992.418 1.505 1.751 2.49 2.995 3.312 2.429 1.384 5.23 1.971 7.995 2.188 3.308.22 6.697-.108 9.816-1.278.521-.172.987-.534 1.561-.513l-.042-.077c1.606-.79 3.223-2.116 3.432-4.013.235-1.156-.403-2.289-1.183-3.09-1.39-1.398-3.247-2.2-5.104-2.757-1.185-.302-2.418-.683-3.635-.649l-.074.217c1.323.278 2.667.582 3.863 1.239.857.489 1.878 1.13 2.018 2.198l.093-.026c.058.336.119.682.185 1.032-.775 1.836-2.699 2.76-4.527 3.24-3.135.805-6.503.77-9.607-.155-1.675-.535-3.513-1.485-3.979-3.329.093-.341.164-.68.217-1.018 1.31-2.241 4.106-2.876 6.49-3.228.585-.18 1.312.09 1.807-.334-.966-.145-1.945.05-2.905.148m-3.09 1.95c-.89.48-1.855 1.217-1.916 2.318.103 1.302 1.36 2.061 2.426 2.564 3.051 1.278 6.504 1.378 9.718.746 1.71-.423 3.675-1.003 4.604-2.633.582-1.415-.815-2.553-1.947-3.092-1.12-.487-2.344-1.027-3.57-.96-.079.788-.24 1.576-.214 2.38.151.01.455.03.606.037-.087.358-.333.638-.518.958.195.291.43.587.513.95a74.04 74.04 0 0 1-.791.058c-.458.86-1.466.307-2.106.823-.696-.384-1.344-.95-2.202-.788l.55-.289c-.243-.592-.14-1.291-.497-1.82l.276-.013c.238-.868.494-1.73.735-2.596-1.945.095-3.926.442-5.667 1.357m21.666 13.74c-3.36 1.662-7.061 2.524-10.773 2.916-5.9.553-12.002-.008-17.521-2.257-2.617-1.093-5.125-2.649-6.868-4.93.18 1.22.222 2.453.338 3.681.024.902.524 1.767 1.244 2.305 1.143.436 2.204 1.06 3.355 1.481 10.17 4.046 21.838 3.609 31.926-.465.932-.524 1.763-1.212 2.612-1.858.524-.468 1.217-.955 1.22-1.73.142-1.395.29-2.784.428-4.173-1.447 2.218-3.598 3.88-5.96 5.03m1.73 3.294C32.404 44.7 25.98 45.824 19.6 45.583c-2.575-.137-5.144-.468-7.657-1.055-1.146-.215-2.252-.68-3.392-.842l.002-.106c-1.619-.479-3.172-1.15-4.701-1.852.114 8.089.431 16.174.788 24.254.318 6.358.561 12.721 1.167 19.06.103 1.713 1.23 3.184 2.688 4.014l.032.492c3.543 1.379 7.297 2.133 11.086 2.38l.003-.205c3.839.021 7.699-.502 11.36-1.674 1.712-.601 3.506-1.281 4.782-2.622 1.174-1.715 1.341-3.874 1.693-5.866.955-7.276 1.325-14.61 1.828-21.926.31-6.255 1.347-12.459 1.381-18.73-.85.347-1.45 1.133-2.325 1.445z" stroke="#000" stroke-width=".13229"/>
        <path d="M33.285 1.544c1.81-.513 3.693-1.056 5.593-.881-1.767.249-3.553.479-5.268 1.029l-.325-.148z" fill="#fff" stroke="#fff" stroke-width=".13229"/>
        <path d="M38.878.644c.1.008.304.021.407.03l-.301.619a7.575 7.575 0 0 1-.164-.239c-2.106.045-4.173.582-6.154 1.252a38.467 38.467 0 0 0-.524-.363c.537.133.9.011 1.085-.37l.058-.048.325.149c1.715-.55 3.5-.781 5.268-1.03z" fill="#da3c28" stroke="#da3c28" stroke-width=".13229"/>
        <path d="M38.82 1.068c.04.06.121.18.164.238l.659-.095c-.246.328-.082.767-.07 1.15l-.642-.275.188.741-.19-.339c-.75-.026-1.493.085-2.231.183.034-.138.106-.413.143-.55.74.272 1.508-.283 2.262-.045l.204.095-.03-.773c-.084.053-.254.156-.338.21-1.059.259-2.16.288-3.22.54-.654.116-1.286.385-1.96.33l.486.378c.64-.227 1.305-.365 1.969-.508.174.135.349.278.526.424-.283.002-.852.007-1.135.013l-.074.346c.51-.066 1.024-.108 1.543-.103-1.453.138-2.82.643-4.218 1.024-1.14.347-2.323.609-3.37 1.196-.337.413-1.011-.143-.424-.437l.013-.158-.23-.212.069-.228a.963.963 0 0 1 .913-.068c-.122.172-.32.333-.289.574.895-.236 1.768-.63 2.707-.64a15.763 15.763 0 0 0-.535-.36c-.386.148-.772.296-1.158.447-.18-.114-.358-.228-.535-.333.947-.077 1.826-.464 2.744-.67.026.254-.302.357-.307.58.138.034.407.105.542.142-.476-.767.545-.78.85-1.217-1.691.241-3.308.828-4.959 1.244l-.013-.455c.574-.201 1.143-.495 1.776-.426-.186-.14-.368-.273-.548-.402l-.098-.072c.339.146.585.077.735-.204.84-.211 1.633-.664 2.488-.767-.186.381-.548.503-1.085.37.172.117.346.239.524.363 1.981-.67 4.048-1.206 6.154-1.251m-7.27 1.235l-.017.177c.622.45.683-.743.016-.177m-.799.246c.109.733.96-.537 0 0m2.498.794l-.14.384c.775-.146 1.529-.397 2.317-.471l.058-.368c-.754.116-1.476.376-2.235.455z" fill="#fff" stroke="#fff" stroke-width=".13229"/>
        <path d="M38.939 1.597c.084-.053.254-.156.338-.21l.03.773-.204-.095c-.04-.116-.122-.352-.164-.468z" stroke="#000" stroke-width=".13229"/>
        <path d="M35.719 2.152c1.06-.25 2.161-.28 3.22-.54.042.117.124.353.164.469-.754-.238-1.521.317-2.262.045-.037.138-.109.413-.143.55.738-.098 1.481-.209 2.23-.182l.19.338.085.156c-.706.09-1.42.027-2.13.045a11.108 11.108 0 0 0-1.542.104l.074-.347c.283-.005.852-.01 1.135-.013a23.086 23.086 0 0 0-.526-.424c-.664.143-1.329.281-1.969.508-.167-.13-.328-.256-.487-.378.675.056 1.307-.214 1.96-.33z" fill="#ea402c" stroke="#ea402c" stroke-width=".13229"/>
        <path d="M31.55 2.285c.666-.566.605.627-.017.177zM30.75 2.55c.96-.538.109.732 0 0z" fill="#da3c28" stroke="#da3c28" stroke-width=".13229"/>
        <path d="M28.874 3.449c-.106-.667.831-.593 1.228-.828.18.13.362.262.548.402-.633-.069-1.202.225-1.776.426z" fill="#d93c28" stroke="#d93c28" stroke-width=".13229"/>
        <path d="M28.887 3.899c1.651-.416 3.268-1.003 4.959-1.244-.305.437-1.326.45-.85 1.217a32.442 32.442 0 0 0-.542-.143c.005-.222.333-.325.307-.58-.918.207-1.797.594-2.744.67.177.106.355.22.535.334.386-.151.772-.3 1.158-.447.178.113.358.235.535.36-.94.01-1.812.404-2.707.64-.031-.241.167-.403.289-.575a.963.963 0 0 0-.913.07z" fill="#da3c28" stroke="#da3c28" stroke-width=".13229"/>
        <path d="M33.248 3.343c.759-.08 1.481-.339 2.235-.455l-.058.368c-.788.074-1.542.325-2.318.47z" fill="#da3c28" stroke="#da3c28" stroke-width=".13229"/>
        <path d="M27.625 3.766c-.045-.312 1.014-.817.956-.262-.072.064-.217.19-.289.257l-.238.1-.429-.095z" fill="#933020" stroke="#933020" stroke-width=".13229"/>
        <path d="M28.292 3.766c.072-.066.217-.193.289-.256.042.61-.053.696-.289.256z" fill="#faeeed" stroke="#faeeed" stroke-width=".13229"/>
        <path d="M27.572 4.375c-.412-.188-.394-.389.053-.609l.429.096.026.224-.508.289z" fill="#ded5d4" stroke="#ded5d4" stroke-width=".13229"/>
        <path d="M27.572 4.375l.508-.289c.212.305.466.71.408 1.09l-.18.043-.302-.378-.029-.188-.177-.059a17.509 17.509 0 0 1-.228-.22z" fill="#ea402c" stroke="#ea402c" stroke-width=".13229"/>
        <path d="M26.369 5.036c-.082-.43.322-.616.59-.833l-.003.296c-.193.162-.185.347.026.556l-.43-.08c.116.175.348.53.465.704-.379-.055-.622-.412-1.021-.41a8.54 8.54 0 0 0 .068-.246z" fill="#fff" stroke="#fff" stroke-width=".13229"/>
        <path d="M26.982 5.036c-.211-.209-.22-.394-.026-.555.458-.04.513.524.807.756.167.712-.55-.127-.78-.2z" fill="#f5d85e" stroke="#f5d85e" stroke-width=".13229"/>
        <path d="M27.8 4.613l.177.058.03.188-.212-.026z" fill="#fff" stroke="#fff" stroke-width=".13229"/>
        <path d="M29.075 4.64c-.002.04-.01.119-.013.158z" fill="#da3c28" stroke="#da3c28" stroke-width=".13229"/>
        <path d="M28.308 5.222l.18-.043.077.252-.19.042z" fill="#f8f8f8" stroke="#f8f8f8" stroke-width=".13229"/>
        <path d="M25.974 6.174c-.153-.323.28-.73.442-.31-.188.387-.042 1.03-.42 1.268l-.022-.958z" fill="#d5604d" stroke="#d5604d" stroke-width=".13229"/>
        <path d="M28.088 5.75l.22.006.037.214-.228-.008z" fill="#cfcfcf" stroke="#cfcfcf" stroke-width=".13229"/>
        <path d="M26.416 5.857l.379-.04c-.239 1.003-.506 1.997-.73 3.005l.364-.121c.167-.921.426-1.818.646-2.725.13.053.389.153.519.206a2.61 2.61 0 0 0-.365 1.51c.494-.21.394-.989.513-1.457.121.029.362.082.484.108-.841 1.495-1.072 3.22-1.453 4.863-.838 3.704-1.677 7.406-2.606 11.089-.143.611-.341 1.206-.333 1.85l-.098-.125c-.045-.064-.138-.188-.183-.249.165-1.27.508-2.53.908-3.744a13.67 13.67 0 0 0-.323-.56c-.582 3.034-1.423 6.024-2.175 9.024l-.43-.119c1.452-5.686 2.761-11.411 4.27-17.081-.12-.183-.239-.36-.355-.532-.222 2.035-.934 3.995-1.355 6-.526 2.123-1.048 4.245-1.574 6.37-.071.404-.323.793-.156 1.224l-.532.212c.53-2.26 1.117-4.5 1.651-6.757l-.37.113c-.75 3.36-1.643 6.689-2.442 10.039l-.241.037c-.204-.654-.069-1.323.124-1.95 1.51-5.186 2.82-10.451 4.329-15.624-.024 1.088-.471 2.106-.662 3.17l.376-.117c.26-1.391.667-2.746.974-4.127l-.358.077-.307.96c.323-1.42.691-2.815 1.07-4.22l.02.958c.379-.238.233-.881.421-1.267m-.643 1.52l-.055.371c-.035 1.077.574-.505.055-.37m1.36.473l-.108.297c-.064.915.653-.445.108-.297m-1.619.593l-.06.37c-.051 1.072.579-.518.06-.37m.743 1.064c-.002-.18-.01-.543-.013-.725-.444-.045-.362 1.045.013.725m.471.029c.471.33.307-.625.34-.85l-.34.85m-1.076 1.026c.854.384-.162-1.606 0 0m.836-.852c-.061 1.506-.678 2.943-.945 4.427l.4-.146c.206-1.267.545-2.516.91-3.746a2.646 2.646 0 0 0-.365-.535M24.15 13.66c-.156 1.05-.497 2.064-.714 3.106l.389-.1c.14-1.045.482-2.046.701-3.07l-.376.064m1.323.534c-.15 1.053-.505 2.067-.714 3.112l.389-.12c.137-1.042.487-2.042.701-3.066l-.376.074m-2.17 3.617c.284-.209.38-.518.284-.931-.294.183-.389.492-.283.931m1.373-.415c-.069.685-.307 1.336-.445 2.013l.519-.034c-.262-.712.288-1.394.31-2.106z" fill="#fff" stroke="#fff" stroke-width=".13229"/>
        <g fill="#da3c28" stroke="#da3c28">
            <path d="M26.795 5.83l.28.159c-.22.907-.479 1.804-.646 2.725l-.365.122c.225-1.008.492-2.003.73-3.006zM27.594 6.2l.148.053c-.12.469-.019 1.247-.513 1.458a2.61 2.61 0 0 1 .365-1.51zM25.773 7.391c.519-.135-.09 1.447-.055.37z" stroke-width=".13229"/>
        </g>
        <path d="M27.133 7.867c.545-.148-.172 1.212-.108.297z" fill="#c42c00" stroke="#c42c00" stroke-width=".13229"/>
        <g fill="#da3c28" stroke="#da3c28">
            <path d="M25.514 8.45c.519-.149-.111 1.441-.06.37zM26.257 9.508c-.375.32-.457-.77-.013-.725l.013.725zM26.728 9.56l.34-.849c-.033.225.131 1.18-.34.85zM25.212 9.428l.358-.076c-.307 1.38-.715 2.735-.974 4.127l-.376.117c.19-1.064.638-2.083.662-3.17l.023-.037.307-.96zM25.652 10.566c-.162-1.606.854.384 0 0zM26.488 9.72c.14.158.262.335.365.534-.365 1.23-.704 2.479-.91 3.746l-.4.146c.267-1.484.884-2.921.945-4.427z" stroke-width=".13229"/>
            <path d="M25.448 10.778c.116.172.235.349.354.532-1.508 5.67-2.817 11.395-4.27 17.08-.048.075-.145.22-.193.292-.019-.109-.05-.323-.066-.429-.019-.293-.17-.415-.45-.368l-.122.39-.031-.297c.799-3.35 1.693-6.678 2.442-10.038l.37-.114c-.534 2.257-1.122 4.498-1.65 6.758l.53-.212c-.166-.431.086-.82.157-1.225.526-2.125 1.048-4.247 1.574-6.369.42-2.005 1.133-3.966 1.355-6m-3.784 14.525l.25.183.097-.172.026-.58c-.235-.02-.36.167-.373.57m-.145.523c.005.159.016.479.018.64.442.228.315-.677-.018-.64m-.265 1.058c.006.16.016.48.019.64.442.228.315-.677-.019-.64z" stroke-width=".13229"/>
            <path d="M24.151 13.662l.376-.064c-.22 1.024-.56 2.024-.701 3.07l-.389.1c.217-1.043.558-2.056.714-3.106zM25.474 14.217l.376-.074c-.214 1.024-.564 2.024-.701 3.067l-.389.119c.209-1.045.564-2.059.714-3.112zM23.305 17.816c-.106-.44-.01-.75.283-.932.095.413 0 .723-.283.932zM24.678 17.419l.384-.127c-.022.711-.572 1.394-.31 2.106l-.519.034c.138-.677.376-1.328.445-2.013z" stroke-width=".13229"/>
        </g>
        <path d="M11.097 21.176c3.455-1.053 7.075-1.485 10.681-1.506-.262.971-.532 1.94-.799 2.913-3.188.093-6.437.635-9.287 2.13-1.434.775-2.847 1.852-3.452 3.421-.5 1.223-.215 2.66.566 3.702 1.204 1.632 3.085 2.593 4.95 3.273 4.165 1.415 8.718 1.56 13.012.68 2.336-.522 4.7-1.366 6.511-2.985 1.085-.968 1.892-2.42 1.636-3.91-.268-1.625-1.527-2.86-2.858-3.713-2.225-1.402-4.831-2.082-7.421-2.405.169-.994.439-1.973.709-2.942 3.468.326 6.924 1.07 10.12 2.48 2.214 1 4.363 2.317 5.89 4.243 1.058 1.334 1.72 3.059 1.489 4.779-.254 2.174-1.733 3.976-3.395 5.3-2.746 2.134-6.088 3.349-9.45 4.116-6.027 1.28-12.377 1.175-18.328-.455-3.027-.876-6.022-2.156-8.379-4.292-1.468-1.341-2.656-3.167-2.701-5.21-.067-2.076 1.084-3.978 2.555-5.362 2.226-2.082 5.067-3.368 7.951-4.257z" fill="#d6d6d6" stroke="#d6d6d6" stroke-width=".13229"/>
        <path d="M24.138 19.482c.109.18.217.366.323.561-.4 1.215-.743 2.474-.908 3.744.045.061.138.185.183.249l.008.13-.159.04a10.121 10.121 0 0 0-.264-.083c-.212 1.535-.765 3.003-1.014 4.535-.084-.037-.256-.114-.344-.15.752-3.001 1.593-5.99 2.175-9.026z" fill="#da3c28" stroke="#da3c28" stroke-width=".13229"/>
        <path d="M18.03 23.345c.96-.098 1.938-.293 2.904-.148-.495.423-1.222.154-1.807.333-2.384.352-5.18.987-6.49 3.228-1.424 1.03-3.305 1.76-4.024 3.48-.41-1.553.534-3.064 1.714-3.993 2.188-1.74 4.977-2.505 7.702-2.9zM24.448 23.372c1.217-.035 2.45.346 3.635.648 1.857.558 3.715 1.36 5.104 2.757.78.802 1.418 1.934 1.183 3.09-.892-.902-1.82-1.767-2.882-2.463-.357-.193-.706-.667-1.14-.405l-.093.027c-.14-1.07-1.161-1.71-2.018-2.2-1.196-.655-2.54-.96-3.863-1.237z" fill="#a9a9a9" stroke="#a9a9a9" stroke-width=".13229"/>
        <path d="M14.939 25.303c1.74-.915 3.722-1.262 5.667-1.357-.24.865-.497 1.728-.735 2.595l-.276.014-.785.063c.058.376.293.677.497.998-.206.31-.452.619-.487 1.01.183.01.543.03.722.037.858-.161 1.506.405 2.202.789.64-.516 1.648.037 2.106-.823.198-.013.595-.042.79-.058-.081-.363-.317-.66-.512-.95.185-.32.43-.6.518-.958a46.51 46.51 0 0 1-.606-.037c-.026-.804.135-1.593.215-2.381 1.225-.066 2.45.473 3.569.96 1.132.54 2.53 1.678 1.947 3.093-.929 1.63-2.894 2.21-4.604 2.633-3.214.632-6.667.532-9.718-.746-1.066-.503-2.323-1.262-2.426-2.564.061-1.1 1.027-1.839 1.916-2.318z" fill="#d6d6d6" stroke="#d6d6d6" stroke-width=".13229"/>
        <g fill="#fff" stroke="#fff">
            <path d="M23.32 24.113c.067.018.2.06.265.082.043.055.13.164.172.22-.37 1.219-.156 2.515-.378 3.756-.042.57-.659.535-1.072.476.249-1.531.802-3 1.014-4.534zM21.664 25.303c.014-.402.138-.59.373-.569l-.026.58-.098.172c-.063-.048-.188-.138-.249-.183zM21.519 25.832c.333-.037.46.868.018.64a50.26 50.26 0 0 0-.018-.64z" stroke-width=".13229"/>
        </g>
        <path d="M18.81 26.626l.785-.063c.358.529.254 1.227.498 1.82-.138.071-.413.217-.55.288-.18-.008-.54-.026-.723-.037.035-.391.28-.7.487-1.01-.204-.32-.44-.622-.497-.998z" fill="#343434" stroke="#343434" stroke-width=".13229"/>
        <path d="M8.613 30.25c.72-1.719 2.6-2.45 4.024-3.478a9.455 9.455 0 0 1-.217 1.018c-.548 1.868-.593 3.845-.812 5.773-1.244-.822-2.577-1.807-2.995-3.312z" fill="#d6d6d6" stroke="#d6d6d6" stroke-width=".13229"/>
        <path d="M21.254 26.89c.334-.036.46.868.019.64a50.26 50.26 0 0 0-.019-.64z" fill="#fff" stroke="#fff" stroke-width=".13229"/>
        <path d="M30.348 26.996c.434-.261.783.212 1.14.405 1.061.696 1.99 1.561 2.882 2.464-.21 1.897-1.826 3.222-3.432 4.013-.32-.442-.21-1.003-.225-1.5.01-1.45.1-2.92-.18-4.35a66.9 66.9 0 0 1-.185-1.032z" fill="#d6d6d6" stroke="#d6d6d6" stroke-width=".13229"/>
        <path d="M11.608 33.558c.22-1.929.264-3.905.812-5.773.466 1.844 2.304 2.794 3.98 3.328 3.103.926 6.47.96 9.606.156 1.828-.481 3.752-1.404 4.527-3.24.28 1.428.19 2.9.18 4.349.016.497-.095 1.058.225 1.5l.042.077c-.574-.021-1.04.341-1.56.513-3.12 1.17-6.51 1.498-9.817 1.278-2.765-.217-5.566-.804-7.995-2.188z" fill="#a9a9a9" stroke="#a9a9a9" stroke-width=".13229"/>
        <path d="M20.823 27.87c.28-.048.431.074.45.367l-.334-.04z" fill="#fff" stroke="#fff" stroke-width=".13229"/>
        <path d="M36.605 39.035c2.363-1.151 4.514-2.813 5.961-5.03-.137 1.39-.286 2.778-.428 4.173-.003.775-.696 1.262-1.22 1.73-.85.646-1.68 1.333-2.612 1.857-10.088 4.075-21.756 4.511-31.926.466-1.151-.42-2.212-1.045-3.355-1.482-.72-.537-1.22-1.402-1.244-2.304-.116-1.228-.159-2.46-.338-3.68 1.743 2.28 4.251 3.836 6.868 4.929 5.52 2.249 11.62 2.81 17.52 2.257 3.713-.392 7.414-1.255 10.774-2.916z" fill="#a9a9a9" stroke="#a9a9a9" stroke-width=".13229"/>
        <path d="M38.336 42.342c.875-.312 1.476-1.098 2.325-1.444-.034 6.27-1.071 12.474-1.38 18.73-.504 7.315-.874 14.649-1.83 21.925-.351 1.992-.518 4.151-1.692 5.866-1.276 1.341-3.07 2.021-4.781 2.622-3.662 1.172-7.522 1.696-11.361 1.674 0-15.38.029-30.762-.016-46.14 6.379.241 12.803-.883 18.735-3.233zM3.853 41.707c1.53.701 3.082 1.373 4.701 1.852l-.002.106c-.106 15.12.008 30.247-.056 45.37-1.458-.83-2.585-2.302-2.688-4.013-.606-6.34-.85-12.703-1.167-19.06-.357-8.081-.674-16.167-.788-24.255z" fill="#ff2600" stroke="#ff2600" stroke-width=".13229"/>
        <path d="M8.552 43.665c1.14.161 2.246.627 3.392.841 2.513.588 5.082.918 7.657 1.056.045 15.377.016 30.76.016 46.14l-.003.204c-3.789-.246-7.543-1-11.086-2.379l-.032-.492c.064-15.123-.05-30.25.056-45.37z" fill="#c42c00" stroke="#c42c00" stroke-width=".13229"/>
    </g>
</svg>
