<svg version="1.1" viewBox="0 0 1000 1000" xmlns="http://www.w3.org/2000/svg">
	<rect width="1e3" height="1e3" rx="50" ry="50" fill="#ac2a34"/>
	<path d="m626.06 733.94c-5.3447 6.2168-11.755 11.642-19.282 16.092-46.199 27.328-125.65 25.147-231.74-24.71-106.08-49.855-197.7-133.14-242.9-212.04-33.108-57.778-37.783-109.91-19.659-143.46-34.941 184.51 349.15 455.86 512.87 364.57zm294.34 8.7703-112.53 76.515c-20.685-71.85-81.757-100.09-139.88-98.479-18.382.50392-31.253 3.7979-43.47 7.7902-27.892 9.1004-43.475 14.388-73.401 15.028-84.261-.91632-169.48-42.129-235.76-85.264-67.621-45.662-129.89-103.11-170.21-175.53-21.495-41.103-40.816-98.123-12.176-143.2l39.194-56.305c-3.4338 40.898 13.563 85.656 31.601 117.14 52.953 92.415 153.87 172.86 248.77 217.45 53.254 25.031 133.01 52.914 199.61 40.484 30.963-5.7848 49.15-13.3 68.656-16.847 73.639-13.361 172.78 28.849 199.6 101.2zm-465.26-269.32c-7.3583-.0669-17.531-6.0543-22.682-13.325-5.1596-7.2523-3.3577-13.07 4.0118-12.984 7.3726.0792 17.535 6.0316 22.706 13.304 5.1421 7.2667 3.3547 13.097-4.0355 13.005zm68.066-1.3791c3.0245 6.9757-1.4161 11.008-9.8881 9.0202-8.4658-1.9962-17.801-9.2876-20.818-16.268-3.0225-6.9768 1.3966-11.036 9.8759-9.0274 8.4751 1.9992 17.793 9.2824 20.83 16.276zm-26.078-61.997c9.0058 4.2977 16.215 12.529 16.123 18.396-.0751 5.8733-7.457 7.1372-16.458 2.8518-8.9956-4.2926-16.228-12.514-16.132-18.398.0967-5.8671 7.4704-7.13 16.467-2.8497zm-82.015-38.785c2.9135-4.2206 12.182-2.8518 20.677 3.0626 8.5173 5.9164 13.06 14.127 10.153 18.354-2.9135 4.2196-12.175 2.8446-20.698-3.0677-8.508-5.9072-13.051-14.125-10.132-18.349zm-24.876 41.716c-7.457-6.8255-9.4223-14.39-4.3718-16.92 5.0392-2.5278 15.172.96262 22.623 7.7676 7.4508 6.8183 9.4138 14.385 4.3852 16.92-5.0536 2.5165-15.19-.95439-22.637-7.7686zm170.29 199.75c-31.93-4.3924-70.895-31.104-87.059-59.652-16.159-28.557-3.3896-48.123 28.532-43.725 31.913 4.378 70.873 31.09 87.043 59.654 16.149 28.537 3.3701 48.101-28.516 43.722zm122.13-110.06c7.4158 26.47-14.948 38.538-49.931 26.966-35.001-11.586-69.382-42.415-76.802-68.878-7.421-26.46 14.923-38.538 49.927-26.951 34.982 11.573 69.379 42.416 76.805 68.862zm-196.85-211.91c35.475 19.726 60.476 52.817 55.827 73.911-4.6289 21.127-37.155 22.237-72.605 2.5247-35.48-19.714-60.464-52.809-55.839-73.906 4.6442-21.118 37.15-22.236 72.616-2.5309zm-237.48-28.817c16.029-13.459 54.934-3.6766 86.931 21.879 31.977 25.549 44.917 57.171 28.894 70.638-16.007 13.476-54.922 3.6756-86.926-21.875-31.978-25.546-44.908-57.177-28.899-70.641zm43.804 196.73c-25.349-28.476-25.462-55.442-.23242-60.246 25.233-4.7904 66.248 14.419 91.596 42.899 25.36 28.495 25.47 55.465.23961 60.249-25.228 4.7842-66.233-14.422-91.604-42.902zm133.15-46.652c1.2001-10.525 15.821-12.003 32.716-3.2806 16.869 8.7003 29.609 24.295 28.426 34.815-1.1919 10.531-15.821 12-32.693 3.3022-16.903-8.7106-29.622-24.312-28.449-34.836zm-229.41-165.28c49.411-70.983 205.81-47.551 349.32 52.348 143.5 99.882 219.78 238.41 170.36 309.39-49.411 70.985-205.81 47.551-349.31-52.336-143.52-99.901-219.8-238.42-170.39-309.41z" clip-rule="evenodd" fill="#fefefe" fill-rule="evenodd" stroke-width="1.0284"/>
</svg>
