<svg version="1.1" viewBox="0 0 1000 1000" xmlns="http://www.w3.org/2000/svg">
	<path fill="#FEFEFE" d="m633.99 749.24c-5.7138 6.6461-12.567 12.446-20.614 17.203-49.39 29.215-134.33 26.884-247.74-26.417-113.41-53.298-211.35-142.33-259.67-226.68-35.395-61.768-40.392-117.5-21.017-153.37-37.354 197.25 373.26 487.34 548.29 389.75zm314.67 9.376-120.3 81.799c-22.114-76.812-87.403-107-149.54-105.28-19.652.53873-33.411 4.0602-46.472 8.3282-29.818 9.7289-46.477 15.382-78.47 16.066-90.08-.9796-181.18-45.039-252.04-91.152-72.291-48.816-138.86-110.23-181.97-187.65-22.979-43.942-43.635-104.9-13.017-153.09l41.901-60.194c-3.671 43.722 14.5 91.572 33.783 125.23 56.61 98.797 164.5 184.8 265.95 232.47 56.932 26.76 142.2 56.568 213.4 43.28 33.101-6.1843 52.544-14.218 73.398-18.01 78.725-14.284 184.71 30.841 213.38 108.19zm-497.39-287.92c-7.8665-.0715-18.742-6.4724-24.249-14.245-5.5159-7.7532-3.5896-13.973 4.2889-13.881 7.8818.0847 18.746 6.4482 24.274 14.223 5.4972 7.7686 3.5864 14.001-4.3142 13.903zm72.767-1.4743c3.2334 7.4575-1.5139 11.768-10.571 9.6431-9.0505-2.134-19.03-9.929-22.256-17.392-3.2312-7.4586 1.493-11.798 10.558-9.6508 9.0604 2.1373 19.022 9.9235 22.269 17.4zm-27.879-66.279c9.6278 4.5945 17.335 13.394 17.237 19.667-.0803 6.2789-7.972 7.6301-17.595 3.0487-9.6168-4.589-17.349-13.378-17.246-19.669.10335-6.2723 7.9863-7.6224 17.604-3.0465zm-87.679-41.464c3.1147-4.5121 13.023-3.0487 22.105 3.2741 9.1055 6.325 13.962 15.103 10.854 19.622-3.1147 4.511-13.016 3.041-22.127-3.2796-9.0956-6.3152-13.952-15.101-10.832-19.616zm-26.594 44.597c-7.972-7.2969-10.073-15.384-4.6737-18.088 5.3872-2.7024 16.22 1.0291 24.185 8.304 7.9654 7.2892 10.064 15.378 4.688 18.089-5.4026 2.6903-16.239-1.0203-24.2-8.3051zm182.05 213.55c-34.135-4.6957-75.791-33.252-93.072-63.772-17.275-30.529-3.6237-51.446 30.503-46.745 34.117 4.6803 75.768 33.237 93.054 63.774 17.264 30.508 3.6028 51.423-30.485 46.742zm130.56-117.66c7.928 28.298-15.98 41.2-53.379 28.828-37.418-12.386-74.174-45.344-82.106-73.635-7.9335-28.287 15.954-41.199 53.375-28.812 37.398 12.372 74.171 45.345 82.109 73.618zm-210.45-226.55c37.925 21.088 64.653 56.465 59.683 79.016-4.9486 22.586-39.721 23.773-77.619 2.6991-37.93-21.076-64.64-56.456-59.695-79.01 4.965-22.576 39.716-23.772 77.631-2.7057zm-253.88-30.807c17.136-14.388 58.728-3.9305 92.935 23.39 34.185 27.313 48.019 61.119 30.889 75.516-17.113 14.407-58.715 3.9294-92.929-23.386-34.187-27.31-48.01-61.126-30.895-75.52zm46.829 210.32c-27.1-30.443-27.221-59.271-.24847-64.407 26.976-5.1212 70.823 15.415 97.922 45.862 27.111 30.463 27.229 59.296.25616 64.41-26.97 5.1146-70.807-15.418-97.93-45.865zm142.35-49.874c1.283-11.252 16.914-12.832 34.975-3.5072 18.034 9.3012 31.654 25.973 30.389 37.219-1.2742 11.258-16.914 12.829-34.951 3.5303-18.07-9.3122-31.668-25.991-30.414-37.242zm-245.25-176.69c52.823-75.885 220.02-50.835 373.45 55.963 153.41 106.78 234.96 254.88 182.13 330.76-52.823 75.887-220.02 50.835-373.43-55.95-153.43-106.8-234.98-254.89-182.16-330.78z" clip-rule="evenodd" fill-rule="evenodd" stroke-width="1.0994"/>
</svg>
