<?xml version="1.0" standalone="no"?>
<!DOCTYPE svg PUBLIC "-//W3C//DTD SVG 20010904//EN"
 "http://www.w3.org/TR/2001/REC-SVG-20010904/DTD/svg10.dtd">
<svg version="1.0" xmlns="http://www.w3.org/2000/svg"
 width="700.000000pt" height="700.000000pt" viewBox="0 0 700.000000 700.000000"
 preserveAspectRatio="xMidYMid meet">
<metadata>
Created by potrace 1.11, written by Peter Selinger 2001-2013
</metadata>
<g transform="translate(0.000000,700.000000) scale(0.100000,-0.100000)"
fill="#000000" stroke="none">
<path d="M1795 5698 c-157 -18 -299 -66 -407 -137 -183 -119 -280 -308 -278
-541 0 -109 1 -116 26 -240 58 -280 266 -649 553 -980 58 -67 311 -322 372
-375 38 -33 132 -111 163 -135 10 -8 26 -22 35 -30 9 -8 72 -56 141 -106 330
-239 653 -420 990 -554 96 -38 310 -111 343 -117 9 -2 53 -12 96 -23 170 -44
301 -62 491 -65 149 -3 205 0 285 15 198 37 329 99 436 209 131 134 186 295
175 511 -3 59 -8 113 -10 121 -3 8 -7 25 -10 39 -11 64 -36 142 -88 284 -36
96 -168 325 -270 469 -52 72 -68 92 -177 226 -63 76 -352 367 -426 428 -27 22
-79 65 -115 95 -395 327 -911 617 -1376 773 -60 20 -116 38 -124 40 -8 2 -49
12 -90 24 -70 19 -207 47 -275 56 -16 2 -52 7 -80 11 -75 10 -301 12 -380 2z
m140 -396 c210 -66 440 -246 543 -425 30 -52 54 -138 49 -178 -13 -123 -125
-171 -312 -134 -183 36 -417 189 -544 355 -143 188 -145 343 -4 396 49 19 186
12 268 -14z m1200 -136 c83 -17 134 -35 223 -80 173 -88 339 -242 408 -378 33
-66 37 -81 38 -153 1 -73 -19 -105 -82 -135 -185 -89 -579 90 -777 353 -120
158 -134 312 -35 371 51 30 143 39 225 22z m-148 -704 c94 -49 141 -152 77
-168 -52 -13 -167 53 -198 115 -15 29 -13 60 4 71 19 12 75 3 117 -18z m-251
-191 c62 -28 112 -77 120 -118 8 -42 -3 -55 -48 -55 -99 0 -230 136 -172 179
24 18 51 16 100 -6z m-576 -26 c302 -92 600 -384 602 -588 0 -70 -26 -113 -87
-142 -216 -104 -706 164 -841 460 -62 134 -44 228 50 271 43 19 64 22 136 19
47 -2 110 -11 140 -20z m960 -31 c126 -41 259 -171 267 -261 7 -67 -17 -88
-97 -87 -162 1 -379 195 -348 310 14 53 85 69 178 38z m345 -34 c93 -36 159
-141 107 -169 -66 -35 -222 73 -222 153 0 33 53 40 115 16z m805 -175 c97 -30
248 -109 307 -160 6 -5 33 -28 60 -49 50 -42 141 -144 164 -186 8 -14 17 -27
20 -30 16 -13 49 -126 49 -167 0 -177 -236 -210 -513 -72 -266 134 -483 407
-451 567 7 34 46 82 83 102 58 30 172 28 281 -5z m-1172 -131 c89 -44 136
-121 94 -155 -71 -57 -273 106 -210 169 19 19 60 14 116 -14z m433 -44 c46
-13 124 -81 137 -119 33 -95 -127 -77 -203 23 -61 80 -31 123 66 96z m100
-425 c320 -112 596 -403 576 -608 -11 -118 -144 -165 -329 -118 -213 55 -438
216 -559 400 -54 81 -72 132 -71 204 0 76 35 116 132 151 34 12 182 -5 251
-29z"/>
<path d="M992 5058 c-23 -35 -89 -130 -147 -213 -165 -234 -196 -312 -200
-513 -5 -244 76 -498 251 -789 53 -88 197 -298 214 -313 3 -3 37 -43 75 -90
260 -318 688 -678 1095 -922 41 -24 99 -59 129 -77 56 -33 315 -163 386 -193
22 -9 63 -27 90 -38 369 -159 825 -249 1102 -219 143 16 196 28 411 95 78 24
173 49 210 55 73 12 279 15 327 5 17 -3 46 -8 65 -11 207 -34 435 -153 562
-293 88 -97 184 -260 218 -367 7 -22 15 -43 19 -47 3 -4 62 31 131 78 254 173
685 465 699 474 19 11 -49 150 -117 240 -52 68 -179 198 -223 228 -14 9 -58
39 -98 65 -144 97 -380 193 -541 221 -19 3 -46 8 -60 11 -44 9 -163 19 -230
19 -119 0 -214 -15 -385 -60 -338 -89 -391 -97 -585 -98 -154 -1 -261 6 -333
20 -12 2 -56 11 -97 19 -82 16 -207 47 -285 72 -85 26 -278 94 -320 113 -22 9
-74 32 -115 50 -344 150 -708 371 -1020 619 -173 137 -228 187 -410 371 -85
86 -195 205 -243 265 -80 100 -216 290 -243 340 -6 11 -22 38 -36 60 -62 98
-181 380 -203 478 -2 12 -11 54 -20 92 -8 39 -18 124 -22 190 -3 66 -7 121 -8
123 -2 2 -21 -25 -43 -60z"/>
<path d="M568 4417 c-84 -205 -60 -486 65 -787 52 -124 170 -338 229 -415 5
-5 40 -53 79 -105 268 -357 623 -684 1051 -969 172 -114 313 -194 512 -292
190 -94 507 -220 612 -244 10 -2 53 -13 94 -25 65 -17 154 -36 265 -55 171
-29 403 -25 559 10 143 33 281 101 366 183 l35 33 -65 -29 c-313 -139 -702
-140 -1170 -2 -87 25 -262 85 -305 105 -16 7 -55 23 -85 35 -88 34 -395 191
-510 260 -873 523 -1527 1256 -1682 1885 -28 115 -33 163 -32 318 0 75 0 137
0 137 -1 0 -9 -19 -18 -43z"/>
</g>
</svg>
