<?xml version="1.0" standalone="no"?>
<!DOCTYPE svg PUBLIC "-//W3C//DTD SVG 20010904//EN"
 "http://www.w3.org/TR/2001/REC-SVG-20010904/DTD/svg10.dtd">
<svg version="1.0" xmlns="http://www.w3.org/2000/svg"
 width="700.000000pt" height="700.000000pt" viewBox="0 0 700.000000 700.000000"
 preserveAspectRatio="xMidYMid meet">
<metadata>
Created by potrace 1.11, written by Peter Selinger 2001-2013
</metadata>
<g transform="translate(0.000000,700.000000) scale(0.100000,-0.100000)"
fill="#000000" stroke="none">
<path d="M1825 5700 c-211 -19 -392 -89 -517 -199 -65 -58 -132 -162 -164
-256 -36 -107 -44 -278 -20 -410 54 -288 238 -640 502 -961 150 -183 494 -509
699 -665 95 -73 360 -250 483 -323 313 -187 740 -363 1057 -436 182 -41 292
-53 505 -54 170 0 194 2 295 27 63 16 150 47 204 73 161 78 279 221 327 394
27 96 24 316 -4 426 -75 284 -225 569 -446 849 -666 840 -1843 1508 -2711
1538 -71 2 -166 1 -210 -3z m160 -418 c186 -73 422 -271 493 -412 58 -117 60
-205 6 -261 -37 -39 -85 -53 -175 -51 -310 6 -739 358 -741 608 -1 63 16 93
73 132 32 22 41 24 149 20 99 -4 126 -9 195 -36z m1189 -128 c254 -65 534
-293 611 -496 12 -34 16 -66 13 -112 -5 -78 -26 -107 -96 -130 -201 -69 -575
114 -767 375 -95 129 -113 278 -41 338 50 41 174 52 280 25z m-164 -708 c70
-46 102 -123 60 -146 -39 -21 -167 45 -196 101 -15 31 -18 61 -6 73 15 16 102
-1 142 -28z m-275 -180 c85 -40 143 -117 114 -152 -40 -49 -192 33 -223 120
-8 22 19 56 43 56 9 0 39 -11 66 -24z m-590 -21 c287 -75 595 -364 612 -575 6
-75 -17 -116 -81 -149 -213 -109 -697 155 -838 455 -84 179 -22 284 167 284
44 0 107 -7 140 -15z m1020 -54 c118 -55 218 -171 218 -253 0 -58 -21 -71
-103 -65 -90 6 -168 45 -250 127 -168 168 -80 292 135 191z m310 -20 c45 -21
99 -75 110 -109 22 -73 -92 -68 -178 7 -42 38 -67 98 -46 112 23 14 71 10 114
-10z m800 -171 c205 -63 440 -243 539 -413 33 -56 59 -160 51 -203 -32 -174
-334 -163 -611 21 -220 147 -378 381 -343 509 10 37 61 89 104 105 43 16 178
6 260 -19z m-1179 -130 c66 -34 107 -78 107 -117 0 -94 -197 -14 -228 93 -7
25 17 54 44 54 10 0 44 -14 77 -30z m466 -56 c40 -21 97 -80 104 -109 14 -58
-41 -71 -124 -29 -58 29 -102 83 -102 126 0 40 56 46 122 12z m3 -395 c210
-40 481 -240 590 -434 118 -212 20 -354 -219 -315 -246 39 -541 254 -652 473
-53 103 -42 208 27 254 65 43 120 48 254 22z"/>
<path d="M884 4902 c-215 -314 -236 -368 -237 -582 0 -208 47 -389 160 -614
276 -552 821 -1096 1518 -1516 146 -88 459 -242 615 -303 377 -147 759 -219
1038 -196 123 11 149 16 372 81 223 64 298 77 442 78 246 0 478 -76 671 -221
115 -87 242 -265 303 -425 16 -41 33 -74 39 -74 13 0 85 48 509 335 169 115
310 215 313 222 17 43 -90 212 -216 346 -165 173 -409 309 -684 382 -128 34
-222 46 -367 46 -137 0 -226 -14 -425 -66 -303 -79 -306 -80 -580 -80 -234 0
-258 2 -380 28 -165 35 -273 66 -455 129 -314 109 -610 258 -925 463 -318 207
-530 381 -795 651 -317 324 -510 603 -645 934 -62 150 -93 280 -107 448 -7 78
-14 142 -18 142 -3 0 -69 -94 -146 -208z"/>
<path d="M571 4425 c-7 -16 -22 -66 -33 -110 -18 -68 -20 -100 -15 -210 15
-370 200 -753 573 -1186 234 -272 550 -546 894 -777 290 -193 703 -398 1025
-506 115 -39 340 -93 462 -111 135 -20 390 -21 498 -1 159 28 315 98 410 181
l50 44 -85 -33 c-338 -135 -727 -127 -1205 24 -248 78 -407 146 -669 287 -438
234 -790 495 -1136 842 -346 347 -600 731 -696 1051 -42 143 -47 171 -53 350
-6 164 -8 182 -20 155z"/>
</g>
</svg>
